<svg id="圖層_1" data-name="圖層 1" xmlns="http://www.w3.org/2000/svg" xmlns:xlink="http://www.w3.org/1999/xlink" viewBox="0 0 842 474"><defs><style>.cls-1{fill:url(#未命名漸層_299);}.cls-2{fill:url(#未命名漸層_299-2);}.cls-3{fill:url(#未命名漸層_268);}.cls-4{fill:url(#未命名漸層_311);}.cls-5{fill:url(#未命名漸層_311-2);}</style><linearGradient id="未命名漸層_299" y1="237" x2="841.89" y2="237" gradientUnits="userSpaceOnUse"><stop offset="0" stop-color="#28569e"/><stop offset="0.3" stop-color="#2a6dac"/><stop offset="0.94" stop-color="#2fa7cf"/><stop offset="1" stop-color="#2fadd3"/></linearGradient><linearGradient id="未命名漸層_299-2" x1="179.91" y1="0.96" x2="803.11" y2="0.96" xlink:href="#未命名漸層_299"/><linearGradient id="未命名漸層_268" x1="254.71" y1="578.76" x2="875.62" y2="268.59" gradientUnits="userSpaceOnUse"><stop offset="0" stop-color="#2c95c9"/><stop offset="0" stop-color="#2a81b6"/><stop offset="0.28" stop-color="#2a86b9"/><stop offset="0.63" stop-color="#2c95c3"/><stop offset="1" stop-color="#2eaed3"/></linearGradient><linearGradient id="未命名漸層_311" x1="283.75" y1="-12.84" x2="203.5" y2="20.09" gradientUnits="userSpaceOnUse"><stop offset="0" stop-color="#2b73a6"/><stop offset="1" stop-color="#284a95"/></linearGradient><linearGradient id="未命名漸層_311-2" x1="229.42" y1="3.37" x2="2.86" y2="96.32" xlink:href="#未命名漸層_311"/></defs><title>background-comp</title><path class="cls-1" d="M179.91,0H0V474H841.89V0H803.11C595.09,3.07,387.66,2,179.91,0Z"/><path class="cls-2" d="M803.11,0H179.91C387.66,2,595.09,3.07,803.11,0Z"/><polygon class="cls-3" points="248.64 474 842 474 842 96.77 248.64 474"/><path class="cls-4" d="M179.91,0Q251,.69,322.13,1.19l2-1.19Z"/><path class="cls-5" d="M0,0V195L327.55,1.19Q255.27.7,182.94,0Z"/></svg>