<svg id="圖層_1" data-name="圖層 1" xmlns="http://www.w3.org/2000/svg" xmlns:xlink="http://www.w3.org/1999/xlink" viewBox="0 0 5442.52 12245.67"><defs><style>.cls-1{fill:url(#未命名漸層_299);}.cls-2{fill:url(#未命名漸層_268);}.cls-3{fill:url(#未命名漸層_311);}.cls-4{opacity:0.4;}.cls-5{fill:#e1ecf6;}.cls-6{fill:#f7fafd;}.cls-7{fill:#f5f9fd;}.cls-8{fill:url(#未命名漸層_299-2);}.cls-9{fill:url(#未命名漸層_268-2);}.cls-10{fill:url(#未命名漸層_311-2);}</style><linearGradient id="未命名漸層_299" y1="1530.71" x2="5442.52" y2="1530.71" gradientUnits="userSpaceOnUse"><stop offset="0" stop-color="#28569e"/><stop offset="0.3" stop-color="#2a6dac"/><stop offset="0.94" stop-color="#2fa7cf"/><stop offset="1" stop-color="#2fadd3"/></linearGradient><linearGradient id="未命名漸層_268" x1="1645.87" y1="3738.64" x2="5659.83" y2="1733.52" gradientUnits="userSpaceOnUse"><stop offset="0" stop-color="#2c95c9"/><stop offset="0" stop-color="#2a81b6"/><stop offset="0.28" stop-color="#2a86b9"/><stop offset="0.63" stop-color="#2c95c3"/><stop offset="1" stop-color="#2eaed3"/></linearGradient><linearGradient id="未命名漸層_311" x1="1470.67" y1="26.89" x2="16.73" y2="623.4" gradientUnits="userSpaceOnUse"><stop offset="0" stop-color="#2b73a6"/><stop offset="1" stop-color="#284a95"/></linearGradient><linearGradient id="未命名漸層_299-2" x1="0" y1="7653.54" x2="5442.52" y2="7653.54" xlink:href="#未命名漸層_299"/><linearGradient id="未命名漸層_268-2" x1="1645.87" y1="9861.47" x2="5659.83" y2="7856.36" xlink:href="#未命名漸層_268"/><linearGradient id="未命名漸層_311-2" x1="1470.67" y1="6149.73" x2="16.73" y2="6746.23" xlink:href="#未命名漸層_311"/></defs><title>bg-all</title><rect class="cls-1" width="5442.52" height="3061.42"/><polygon class="cls-2" points="1606.63 3061.42 5442.52 3061.42 5442.52 622.74 1606.63 3061.42"/><polygon class="cls-3" points="2095.2 0 0 0 0 1260.53 2095.2 0"/><g class="cls-4"><rect class="cls-5" y="3061.42" width="5442.52" height="3061.42"/><polygon class="cls-6" points="0 4082.84 1606.63 3061.42 0 3061.42 0 4082.84"/><polygon class="cls-7" points="5442.52 4109 2095.2 6122.84 5442.52 6122.84 5442.52 4109"/></g><rect class="cls-8" y="6122.83" width="5442.52" height="3061.42"/><polygon class="cls-9" points="1606.63 9184.25 5442.52 9184.25 5442.52 6745.57 1606.63 9184.25"/><polygon class="cls-10" points="2095.2 6122.84 0 6122.84 0 7383.36 2095.2 6122.84"/><g class="cls-4"><rect class="cls-5" y="9184.25" width="5442.52" height="3061.42"/><polygon class="cls-6" points="0 10205.67 1606.63 9184.25 0 9184.25 0 10205.67"/><polygon class="cls-7" points="5442.52 10231.84 2095.2 12245.67 5442.52 12245.67 5442.52 10231.84"/></g></svg>