<svg id="圖層_2" data-name="圖層 2" xmlns="http://www.w3.org/2000/svg" viewBox="0 0 264 235.16"><defs><style>.cls-1{fill:#1ca8cb;opacity:0.3;}.cls-2{fill:#e67a29;}.cls-3{fill:#d84c4f;}.cls-4{fill:#9865a8;}.cls-5{fill:#59beaf;}.cls-6{fill:#f5bb1f;}.cls-7{fill:#e83f4e;}.cls-8{fill:#8a59a1;}.cls-9{fill:#5cbc96;}.cls-10{fill:#fdeacd;}.cls-11{fill:#c0b8bd;}.cls-12{fill:#ddcec6;}.cls-13{fill:#2a2329;}.cls-14{fill:#2c9fda;}.cls-15{fill:#e9f5f8;}.cls-16{fill:#fef5f9;}.cls-17{fill:#e2f2ef;}.cls-18{fill:#58b981;}.cls-19{fill:#f5bb19;}.cls-20{fill:#9866a8;}.cls-21{fill:#d3d3d5;}.cls-22{fill:#fffefe;}.cls-23,.cls-31,.cls-36,.cls-42,.cls-45{fill:none;stroke-miterlimit:10;}.cls-23{stroke:#231815;}.cls-24{fill:#80afa2;}.cls-25{fill:#fef7fa;}.cls-26{fill:#ea576f;}.cls-27{fill:#fffcf8;}.cls-28{fill:#296da7;}.cls-29{fill:#f3fafb;}.cls-30{fill:#2fbbdb;}.cls-31{stroke:#2a2329;}.cls-32{fill:#6ec3ac;}.cls-33{fill:#2293ce;}.cls-34{fill:#d7d6d6;}.cls-35{fill:#ecedf7;}.cls-36{stroke:#d7d6d6;}.cls-37{fill:#ce6e94;}.cls-38{fill:#3756a5;}.cls-39{fill:#c7e6e4;}.cls-40{fill:#212344;}.cls-41{fill:#fdf0f6;}.cls-42{stroke:#32479b;}.cls-43{fill:#fef8fa;}.cls-44{fill:#e4de33;}.cls-45{stroke:#fff;}.cls-46{fill:#fffff9;}.cls-47{fill:#dd4e7e;}.cls-48{fill:#4363ad;}.cls-49{fill:#3366b1;}.cls-50{fill:#c9e5ec;}.cls-51{fill:#16131c;}.cls-52{fill:#846f91;}.cls-53{fill:#4e5ca8;}.cls-54{fill:#d4e2f4;}.cls-55{fill:#22251e;}</style></defs><title>computer</title><polygon class="cls-1" points="13.59 199.9 67.67 233.41 64.82 199.9 13.59 199.9"/><polyline class="cls-1" points="110.11 122.62 138.66 118.97 264 195.26 231 194.58 112.35 123.71"/><polyline class="cls-2" points="52.92 101.09 52.42 114.57 57.58 113.38"/><polygon class="cls-3" points="35.92 114.92 53.92 117.75 53.92 110.25 35.92 106.98 35.92 114.92"/><path class="cls-4" d="M74.88,131.31a28.33,28.33,0,0,1-10.3,2.58s-25.16.85-27.33-14.58L57.58,121Z" transform="translate(0 -7.63)"/><path class="cls-5" d="M74.88,131.31c4.08-2.1,7.21-5.9,4.37-12.76a15.43,15.43,0,0,0-7-7.84L57.58,121Z" transform="translate(0 -7.63)"/><path class="cls-6" d="M72.26,110.71c-8.22-4.54-19.34-2-19.34-2L57.58,121Z" transform="translate(0 -7.63)"/><path class="cls-7" d="M50.58,107.22S40.25,109,35.92,114.61l18,3.28Z" transform="translate(0 -7.63)"/><path class="cls-8" d="M74.88,131.31a28.33,28.33,0,0,1-10.3,2.58s-25.16.85-27.33-14.58l.78,10.3c4.79,12.31,26.55,11.57,26.55,11.57a28.33,28.33,0,0,0,10.3-2.58Z" transform="translate(0 -7.63)"/><path class="cls-9" d="M74.88,138.6c2.84-1.46,5.21-3.74,5.44-7.29l0-8c0,4-2.45,6.43-5.46,8Z" transform="translate(0 -7.63)"/><path class="cls-10" d="M66.56,119.63l1.71,2.25H73s1.79-1.75,2.79-.34-1.33,2-2.58,1.34l-5.5.27-2.37-2.77" transform="translate(0 -7.63)"/><path class="cls-11" d="M142.09,135.88v8.83l-15,8.17s-3,2.16,0,4.16,17.84,10.17,17.84,10.17,2,1.33,6.33-1.17,12.67-7.5,12.67-7.5,1.33-.5,1.66-2.83,0-12.5,0-12.5" transform="translate(0 -7.63)"/><path class="cls-12" d="M91.68,14v92.75s0,4.25,3.5,6.25,112.75,65,112.75,65,7.25,3.5,7.5-2.5,0-93.75,0-93.75,1-5-2.75-8S98.93,8,98.93,8,91.68,5.29,91.68,14Z" transform="translate(0 -7.63)"/><path class="cls-13" d="M212.18,82.54c.5,3.75,0,81,0,81l-120.5-68V14c0-2.78.73-4.4,1.73-5.31L206.87,74.29s5.62,2.5,5.53,7.25S212.18,82.54,212.18,82.54Z" transform="translate(0 -7.63)"/><polygon class="cls-14" points="97.18 11.16 205.68 73.16 205.68 145.41 97.18 83.16 97.18 11.16"/><path class="cls-15" d="M119.93,41l64.5,37.75s.25,14.86,0,14.55-64.5-37.55-64.5-37.55Z" transform="translate(0 -7.63)"/><path class="cls-16" d="M119.73,79l64.5,37.75s.25,14.85,0,14.55-64.5-37.55-64.5-37.55Z" transform="translate(0 -7.63)"/><path class="cls-17" d="M119.93,59.76l64.5,37.75s.25,14.86,0,14.56-64.5-37.56-64.5-37.56Z" transform="translate(0 -7.63)"/><polygon class="cls-18" points="122.93 76.16 122.93 84.78 133.18 90.53 133.18 82.41 122.93 76.16"/><polygon class="cls-19" points="122.93 37.76 122.93 46.38 133.18 52.13 133.18 44.01 122.93 37.76"/><polygon class="cls-20" points="122.93 57.03 122.93 65.65 133.18 71.4 133.18 63.28 122.93 57.03"/><polygon class="cls-21" points="137.43 47.28 180.43 72.28 180.43 73.91 137.43 49.03 137.43 47.28"/><polygon class="cls-21" points="137.43 66.19 180.43 91.19 180.43 92.81 137.43 67.94 137.43 66.19"/><polygon class="cls-21" points="137.43 85.71 180.43 110.71 180.43 112.34 137.43 87.46 137.43 85.71"/><polygon class="cls-21" points="164.16 69.2 137.43 53.74 137.43 51.99 164.16 67.53 164.16 69.2"/><polygon class="cls-21" points="164.16 88.62 137.43 73.15 137.43 71.4 164.16 86.95 164.16 88.62"/><polygon class="cls-21" points="164.16 107.63 137.43 92.17 137.43 90.42 164.16 105.96 164.16 107.63"/><path class="cls-22" d="M189.93,153l37.25,20.13s7.12,4.5,8.62-6.38-9-13.75-9-13.75c-3.62-33.37-25.5-21.7-25.5-21.7s-3.37-6.32-11.37,0c0,0-11.42-.05-5.59,13.33A65.77,65.77,0,0,0,189.93,153Z" transform="translate(0 -7.63)"/><path class="cls-23" d="M86.3,32.59" transform="translate(0 -7.63)"/><polyline class="cls-24" points="107.36 41.57 109.49 35.41 105.86 33.19 106.36 31.07 110.11 28.32 108.61 21.32 104.61 20.94 102.61 18.07 103.99 13.94 97.49 8.82 94.74 10.19 90.49 8.82 89.74 4.07 83.11 4.07 82.99 8.82 81.11 9.44 77.24 6.44 73.99 10.94 76.65 13.94 76.65 18.19 73.24 19.69 74.71 24.94 77.99 25.82 81.24 30.32 80.61 35.41 86.86 40.32 89.61 38.44 94.11 39.44 95.49 43.57 101.11 44.94 101.11 39.94 102.74 39.32"/><polygon class="cls-24" points="76.38 7.16 77.24 6.44 77.24 8.49 76.38 7.16"/><polygon class="cls-24" points="73.24 19.69 72.38 20.41 74.08 20.79 73.24 19.69"/><polygon class="cls-24" points="83.11 4.07 82.42 4.79 84.29 5.99 83.11 4.07"/><polygon class="cls-24" points="106.54 42.16 107.36 41.57 102.74 39.32 106.54 42.16"/><polygon class="cls-24" points="100.25 45.66 101.11 44.94 100.04 43.62 100.25 45.66"/><path class="cls-23" d="M177.08,190.73" transform="translate(0 -7.63)"/><path class="cls-25" d="M182.12,193.71a38.6,38.6,0,0,0,7.38,3.58c3.87.88,4.12-2.62,4.12-2.62s.5-8.75,0-12.75a7.2,7.2,0,0,0-4-5.5L173,167.19c-5.38-1.85-5.63,1.73-5.63,1.73s-.25,9.37,0,12.39a8,8,0,0,0,2.63,5s3.21,2.08,7.08,4.44l3.29,7.31Z" transform="translate(0 -7.63)"/><ellipse class="cls-26" cx="180.18" cy="181.9" rx="4.99" ry="7.65" transform="translate(-73.97 205.24) rotate(-52.22)"/><path class="cls-27" d="M182.55,183.14c-.29.66-1.31,1.37-3.18,2.09,0,0-4.25-3.94-2.5-5.31s2.88.87,2.88.87a1.92,1.92,0,0,1,2.92.84A2.07,2.07,0,0,1,182.55,183.14Z" transform="translate(0 -7.63)"/><path class="cls-23" d="M67,98.48" transform="translate(0 -7.63)"/><path class="cls-25" d="M71.47,101l7.78,4.26c2.87.37,3.54-1.79,3.54-1.79l-.29-15.5a5.22,5.22,0,0,0-2.79-4.34L61.5,73.83a3.05,3.05,0,0,0-4.13,1.75s-.45,13-.5,15.17a3.25,3.25,0,0,0,1.46,3L67,98.48l2,6.06Z" transform="translate(0 -7.63)"/><path class="cls-28" d="M75.06,95.29c-1.69,2.18-5.77,1.85-9.11-.74s-4.68-6.46-3-8.63c1-1.35,3-1.74,5.12-1.23a10.66,10.66,0,0,1,4,2C75.41,89.25,76.75,93.12,75.06,95.29Z" transform="translate(0 -7.63)"/><path class="cls-29" d="M66.42,87.71s1.33,1.12,1.87.17.83-1.59,1.54-.84,0,2.17,0,2.17,2.09,0,2.46,1.79-.54,3.29-1.83,3a5.81,5.81,0,0,1-3.29-2.5l-1-.41Z" transform="translate(0 -7.63)"/><path class="cls-13" d="M162.12,215.48l25.19-15.06a4.29,4.29,0,0,1,4.5,0l9.81,6.25s1.82,1.43,1.07,3.31l-25.94,15.81s-2.25,1.38-3.88.31-10.75-6.31-10.75-6.31A4.09,4.09,0,0,1,162.12,215.48Z" transform="translate(0 -7.63)"/><polygon class="cls-30" points="165.63 207.66 186.96 194.85 198.38 202.78 177.63 215.22 165.63 207.66"/><path class="cls-31" d="M148.75,193.79" transform="translate(0 -7.63)"/><path class="cls-6" d="M76.46,138.88" transform="translate(0 -7.63)"/><polygon class="cls-32" points="105.5 31.79 109.25 29.04 107.75 22.04 103.75 21.66 101.75 18.79 103.13 14.66 96.63 9.54 93.88 10.91 89.63 9.54 88.88 4.79 82.25 4.79 82.13 9.54 80.25 10.16 76.38 7.16 73.13 11.66 75.79 14.66 75.79 18.91 72.38 20.41 73.85 25.66 77.13 26.54 80.38 31.04 79.75 36.13 86 41.03 88.75 39.16 93.25 40.16 94.63 44.28 100.25 45.66 100.25 40.66 101.88 40.03 106.5 42.28 108.63 36.13 105 33.91 105.5 31.79"/><path class="cls-33" d="M85.37,24.92s9.38-2.13,13.13,8.62-7.13,5.88-7.13,5.88S78.87,30.79,85.37,24.92Z" transform="translate(0 -7.63)"/><path class="cls-14" d="M97.17,40.35c1.82-.44,3-2.15,1.33-6.85a17.78,17.78,0,0,0-1.3-2.9Z" transform="translate(0 -7.63)"/><path class="cls-13" d="M91.66,39.64s3.18,1.42,5.51,1l0-10.36a11.08,11.08,0,0,0-5.52-4.63Z" transform="translate(0 -7.63)"/><path class="cls-25" d="M94.37,153" transform="translate(0 -7.63)"/><polygon class="cls-34" points="74.69 157.76 130.86 190.1 154.36 174.74 154.5 173.68 74.83 156.7 74.69 157.76"/><polygon class="cls-35" points="74.83 156.7 98.67 142.53 154.5 173.68 131 189.03 74.83 156.7"/><line class="cls-36" x1="94.37" y1="145.41" x2="150.25" y2="177.03"/><line class="cls-36" x1="90.83" y1="147.43" x2="145.84" y2="179.59"/><line class="cls-36" x1="86.32" y1="150.17" x2="141.63" y2="182.39"/><line class="cls-36" x1="81.53" y1="152.92" x2="136.7" y2="185.5"/><line class="cls-36" x1="119.95" y1="183" x2="126.08" y2="179.36"/><line class="cls-36" x1="80.1" y1="160.14" x2="102.92" y2="145.31"/><line class="cls-36" x1="85.99" y1="163.51" x2="107.84" y2="148.22"/><line class="cls-36" x1="90.94" y1="166.45" x2="112.35" y2="150.64"/><line class="cls-36" x1="101.83" y1="164.91" x2="117.29" y2="153.11"/><line class="cls-36" x1="106.32" y1="167.6" x2="122.73" y2="156.2"/><line class="cls-36" x1="112.35" y1="171.42" x2="128.48" y2="159.66"/><line class="cls-36" x1="118.33" y1="174.71" x2="134.8" y2="162.94"/><line class="cls-36" x1="123.4" y1="177.97" x2="140.65" y2="166.45"/><line class="cls-36" x1="129.75" y1="181.18" x2="147.57" y2="170.13"/><path class="cls-10" d="M151.38,191.29l.8,2.45c4.29.3,3-5.79,3-5.79l-4-.88" transform="translate(0 -7.63)"/><path class="cls-10" d="M158.43,193.75,163,189s-.25-1.66,1.08-1.87,1.63.29,1.79.83a1.43,1.43,0,0,1-1.16,1.57l-5,6.14" transform="translate(0 -7.63)"/><path class="cls-37" d="M160,233.3l-.09,1.66s1,.38,2.4.75,1.62,2.13,0,2.32-4.44.43-4.75-1.07.37-2,.37-2l-.45-1.66" transform="translate(0 -7.63)"/><path class="cls-37" d="M149.72,232.87a2.49,2.49,0,0,0,1.37,2.41,1.38,1.38,0,0,1,.92,1.88s-.79,1.29-4.46-.25c0,0-1.58-1.25.5-4.59" transform="translate(0 -7.63)"/><path class="cls-38" d="M148.22,209.66s.12,5.67,2.91,8L147,232.49l3.5.88,4-14.42,2.5,3.13L156.63,235l4.32-.29-.52-14.79-4-8.42" transform="translate(0 -7.63)"/><path class="cls-39" d="M149.51,194c-1.33,1.75-1.58,6.71-1.58,6.71l-.5,9.25s5.83,3.38,10.25,2.92a45.5,45.5,0,0,1-1.3-14.5l4.3-2.5-1.63-3a8.23,8.23,0,0,1-3.88.47l-2.08-.05" transform="translate(0 -7.63)"/><path class="cls-40" d="M153.15,188.87s2.65,0,3.11-1.17-.23-3.25-1.55-3.54-3.91-.54-5,.54-4.59,7.79,0,13.09a4.21,4.21,0,0,0,5,.37S152.42,190.29,153.15,188.87Z" transform="translate(0 -7.63)"/><polygon class="cls-41" points="0 177.08 51.33 147.41 64.33 173.38 106 178.74 118.33 203.41 67.67 233.41 56.67 210.41 12 203.41 0 177.08"/><line class="cls-36" x1="56.67" y1="210.41" x2="106" y2="178.74"/><line class="cls-36" x1="12" y1="203.41" x2="64.33" y2="173.38"/><path class="cls-36" d="M6.39,181" transform="translate(0 -7.63)"/><polyline class="cls-36" points="76.46 227.81 65.46 205.02 20.8 198.08 8.8 171.99"/><polyline class="cls-36" points="86.39 221.83 75.39 198.83 30.73 191.83 18.73 165.49"/><polyline class="cls-36" points="30.5 159.57 42.5 185.9 85.99 192.72 97.18 215.91"/><polyline class="cls-36" points="41.47 153.11 53.38 179.26 94.47 185.7 107.31 209.94"/><line class="cls-36" x1="6.39" y1="190.41" x2="58.01" y2="160.74"/><line class="cls-36" x1="26.95" y1="205.75" x2="77.61" y2="175.38"/><line class="cls-36" x1="43.5" y1="208.35" x2="94.37" y2="177.57"/><line class="cls-36" x1="62.13" y1="221.83" x2="113.15" y2="193.05"/><polyline class="cls-42" points="5.75 175.36 17.53 175.36 17.53 177.3 24.55 176.74 24.55 190.12 45.88 188.4 51.77 195.12 89.1 189.59 115.38 203.41"/><path class="cls-43" d="M26.9,185c4.05,1.94,7.7,3.64,8.6,3.94,2.25.75,3.33-2.38,3.33-2.38s.17-11,0-14-3.33-4.75-3.33-4.75L18,159c-5.63-1.62-6.25,2.88-6.25,2.88v13.85a3,3,0,0,0,2.12,2.91s4.53,2.22,9.46,4.59L24.87,189Z" transform="translate(0 -7.63)"/><ellipse class="cls-44" cx="24.55" cy="173.86" rx="5.65" ry="7.43" transform="translate(-123.74 72.21) rotate(-49.59)"/><path class="cls-45" d="M27.36,177.87c-1.42,1-3.7.67-5.46-.83a5.78,5.78,0,0,1-1.78-2.59" transform="translate(0 -7.63)"/><circle class="cls-46" cx="22.04" cy="164.43" r="0.85"/><circle class="cls-46" cx="26.95" cy="166.3" r="0.82"/><path class="cls-47" d="M19.58,233.5a11.11,11.11,0,0,0,3.36,1.67c1.56.33,0,3.16-2.27,2.25s-3.92-.09-2.75-4.42" transform="translate(0 -7.63)"/><path class="cls-48" d="M19.5,223.83s.33,6.84-2.58,9.17a3.5,3.5,0,0,0,3.63.5s3.37-4.25,3.37-8.92" transform="translate(0 -7.63)"/><path class="cls-10" d="M28.75,208.85,31,213.76l2.06,1.63s1.6-.66,2.1,1.34-1.25,2-1.25,2-1.19.22-1.38-.88l-3.37-2.65-1.85-5.38" transform="translate(0 -7.63)"/><path class="cls-10" d="M13.62,209.82l-.28,8.32a1.63,1.63,0,0,0-.65,2.37c1,1.44,3.53.56,3.31-.69s-.41-1.31-.41-1.31l.16-8.69" transform="translate(0 -7.63)"/><path class="cls-47" d="M26.17,238.25s1,1.08,4.5,1.33c0,0,2.66,1.42,0,2.67s-6.25.08-6.25-.92v-3.08" transform="translate(0 -7.63)"/><path class="cls-49" d="M24.42,219.42" transform="translate(0 -7.63)"/><path class="cls-49" d="M19,219.75s-1.67,5.08,3.25,9.83c0,0,2.13,2.5,1.32,9.09a3.84,3.84,0,0,0,4.26-.42s.75-8.25-1.66-9.92c0,0-1.39-3.07-.58-8.26" transform="translate(0 -7.63)"/><path class="cls-50" d="M12.5,210.42l4.42,1.14.89-1.9-.28,11H27l-.82-11.85.82,3.13,2.92-3.13s-1.35-4.87-3.74-5.37l-6.41-.82S14.84,202.29,12.5,210.42Z" transform="translate(0 -7.63)"/><path class="cls-10" d="M21.19,202.6s.65,5.63,2.28.22" transform="translate(0 -7.63)"/><ellipse class="cls-10" cx="22.56" cy="191.29" rx="3.91" ry="4.66"/><path class="cls-51" d="M24.2,197s-2.75,3.38-6.47,2.16c0,0,.09-7.24,6.75-4.9,0,0,2.81.49,2.41,4.3C26.89,198.57,24.57,198.6,24.2,197Z" transform="translate(0 -7.63)"/><path class="cls-32" d="M1.17,0" transform="translate(0 -7.63)"/><path class="cls-24" d="M70.79,8.08" transform="translate(0 -7.63)"/><path class="cls-52" d="M77.67,140.5s-.75,1.08,3.25,1.75c0,0,2.28,1.75-.82,2.08s-5.18-.41-4.77-3.83" transform="translate(0 -7.63)"/><path class="cls-52" d="M66.83,145.33a4,4,0,0,0,3.09,2.09c2.25.25.73,3.16-.76,2.75s-4.33-.59-3.83-4.17" transform="translate(0 -7.63)"/><path class="cls-53" d="M60.56,127.5s-1.89,3.25.44,5.67,2.84,1.91,2.84,1.91l.49,11.09s2.5,1,3.17-.84c0,0,2.83-12.56.67-14s-3.76-2.51-3.76-2.51,7.67-.58,7.67,1.17,2.08,11.25,2.08,11.25,2.93.58,4.34-.75c0,0,1.34-11.42-2-13s-5-2.33-12.13-2.08" transform="translate(0 -7.63)"/><path class="cls-54" d="M67.33,119.25s-4.16,2.92-.66,5.58c0,0-.17,4.34-7.5,4.5,0,0-4.92-15,6.66-13.16" transform="translate(0 -7.63)"/><path class="cls-10" d="M61.37,123.67v2.93l6.6,2.73s1.25-1.29,1.94-.23-.1,2.66-1.72,1.79L60.06,128l-.22-4.59" transform="translate(0 -7.63)"/><ellipse class="cls-10" cx="68.27" cy="109.32" rx="3.45" ry="3.09"/><path class="cls-55" d="M68.27,116.66l-2.65-2.34s2.38-2.28,4.29-1,2.58.92,2.35,4l-.53,1.25-1.94-.84.36-1.13-.85.8Z" transform="translate(0 -7.63)"/></svg>