<?xml version="1.0" encoding="iso-8859-1"?>
<!-- Generator: Adobe Illustrator 19.0.0, SVG Export Plug-In . SVG Version: 6.00 Build 0)  -->
<svg version="1.1" id="Capa_1" xmlns="http://www.w3.org/2000/svg" xmlns:xlink="http://www.w3.org/1999/xlink" x="0px" y="0px"
	 viewBox="0 0 496 496" style="enable-background:new 0 0 496 496;" xml:space="preserve">
<path style="fill:#D3EEFD;" d="M488,496H216c-4.416,0-8-3.584-8-8V80c0-4.416,3.584-8,8-8h272c4.416,0,8,3.584,8,8v408
	C496,492.416,492.416,496,488,496z"/>
<path style="fill:#C9E2F0;" d="M464,496H208V296h256c4.416,0,8,3.584,8,8v184C472,492.416,468.416,496,464,496z"/>
<path style="fill:#A2CE6D;" d="M184,304h270.712c5.128,0,9.288,3.584,9.288,8v176c0,4.416-4.16,8-9.288,8H184V304z"/>
<g>
	<circle style="fill:#E8F3DB;" cx="312" cy="400" r="48"/>
	<path style="fill:#E8F3DB;" d="M416,472h-64v-16h56v-8c0-2.12,0.84-4.16,2.344-5.656L424,428.688v-57.376l-13.656-13.656
		C408.84,356.16,408,354.12,408,352v-8h-56v-16h64c4.416,0,8,3.584,8,8v12.688l13.656,13.656C439.16,363.84,440,365.88,440,368v64
		c0,2.12-0.84,4.16-2.344,5.656L424,451.312V464C424,468.416,420.416,472,416,472z"/>
	<rect x="232" y="328" style="fill:#E8F3DB;" width="40" height="16"/>
	<rect x="256" y="456" style="fill:#E8F3DB;" width="16" height="16"/>
</g>
<path style="fill:#4DBAF8;" d="M446.24,96H257.76c-5.048,0-8.832-4.616-7.848-9.568l5.096-25.488
	c0.608-3.024,2.888-5.424,5.872-6.184l23.104-5.864c2.232-0.568,4.112-2.064,5.16-4.12l20.624-40.408
	c1.368-2.68,4.12-4.368,7.128-4.368h70.616c3.056,0,5.84,1.736,7.184,4.48l19.672,40.176c1.04,2.12,2.96,3.672,5.248,4.24
	l23.48,5.872c3,0.752,5.296,3.16,5.904,6.192l5.096,25.464C455.08,91.384,451.288,96,446.24,96z"/>
<polygon style="fill:#D3EEFD;" points="360,48 360,24 344,24 344,48 328,48 328,64 376,64 376,48 "/>
<polygon style="fill:#4DBAF8;" points="440,248 440,168 424,168 424,248 400,248 400,152 384,152 384,248 360,248 360,136 344,136 
	344,248 320,248 320,152 304,152 304,248 280,248 280,168 264,168 264,248 248,248 248,264 456,264 456,248 "/>
<path style="fill:#99C367;" d="M238.864,384.4L198.16,304H176v192h7.824c35.04,0,63.56-28.176,63.992-63.208L248,418.208
	C248.144,406.304,244.984,394.6,238.864,384.4z"/>
<g>
	<path style="fill:#FDCD3B;" d="M175.824,496H64c-35.344,0-64-28.656-64-64v-14.424c0-11.504,3.088-22.792,8.944-32.688L77.224,248
		h84.584l69.056,136.4c6.12,10.2,9.28,21.904,9.136,33.816l-0.184,14.576C239.384,467.824,210.864,496,175.824,496z"/>
	<polygon style="fill:#FDCD3B;" points="160,232 80,232 64,184 72,160 120,160 168,160 176,184 	"/>
</g>
<path style="fill:#FFF7E2;" d="M136,368h-32c-4.408,0-8-3.592-8-8v-16c0-4.408,3.592-8,8-8h48v-16h-24v-8h-16v8h-8
	c-13.232,0-24,10.768-24,24v16c0,13.232,10.768,24,24,24h32c4.408,0,8,3.592,8,8v16c0,4.408-3.592,8-8,8H88v16h24v8h16v-8h8
	c13.232,0,24-10.768,24-24v-16C160,378.768,149.232,368,136,368z"/>
<path style="fill:#F95055;" d="M160,256H80c-4.416,0-8-3.584-8-8v-16c0-4.416,3.584-8,8-8h80c4.416,0,8,3.584,8,8v16
	C168,252.416,164.416,256,160,256z"/>
<g>
</g>
<g>
</g>
<g>
</g>
<g>
</g>
<g>
</g>
<g>
</g>
<g>
</g>
<g>
</g>
<g>
</g>
<g>
</g>
<g>
</g>
<g>
</g>
<g>
</g>
<g>
</g>
<g>
</g>
</svg>
