<svg id="圖層_3" data-name="圖層 3" xmlns="http://www.w3.org/2000/svg" viewBox="0 0 315.38 263.7"><defs><style>.cls-1{fill:#cac4be;opacity:0.5;}</style></defs><title>star</title><ellipse class="cls-1" cx="10.14" cy="215.7" rx="5.13" ry="5.14"/><ellipse class="cls-1" cx="242.63" cy="24.63" rx="5.13" ry="5.14"/><path class="cls-1" d="M18,152.16S-.57,161.8,0,163.48s18.59-11,18.59-11"/><path class="cls-1" d="M73.81,59.5s-18.59,9.64-18,11.32,18.58-11,18.58-11"/><path class="cls-1" d="M153.53,252.23s-18.58,9.64-18,11.32,18.58-11,18.58-11"/><path class="cls-1" d="M293.73,223.93s-18.59,9.63-18,11.32,18.58-11,18.58-11"/><path class="cls-1" d="M309.33,132.12s-18.58,9.63-18,11.32,18.59-11,18.59-11"/><path class="cls-1" d="M293.73,29.77s-18.59,9.64-18,11.32,18.58-11,18.58-11"/><ellipse class="cls-1" cx="35.69" cy="122.76" rx="2.03" ry="2.04"/><ellipse class="cls-1" cx="75.68" cy="36.8" rx="2.03" ry="2.04"/><ellipse class="cls-1" cx="201.89" cy="2.04" rx="2.03" ry="2.04"/><ellipse class="cls-1" cx="285.01" cy="79.06" rx="2.03" ry="2.04"/><ellipse class="cls-1" cx="313.35" cy="163.96" rx="2.03" ry="2.04"/><ellipse class="cls-1" cx="236.83" cy="246.52" rx="3.22" ry="3.23"/><ellipse class="cls-1" cx="89.03" cy="260" rx="2.03" ry="2.04"/><ellipse class="cls-1" cx="29.63" cy="71.73" rx="3.47" ry="3.48"/></svg>