<?xml version="1.0"?>
<svg xmlns="http://www.w3.org/2000/svg" xmlns:xlink="http://www.w3.org/1999/xlink" version="1.1" id="Capa_1" x="0px" y="0px" viewBox="0 0 512 512" style="enable-background:new 0 0 512 512;" xml:space="preserve" width="512px" height="512px" class=""><g><g>
	<path style="fill:#0089FF" d="M398.155,367.753l4.357-0.009c22.22-0.047,40.196-17.554,40.15-39.102l-0.183-85.465   c-0.087-40.62-28.108-74.845-66.396-85.629c-38.437,10.827-66.498,45.268-66.411,86.023l0.183,85.465   c0.046,21.548,18.096,38.978,40.317,38.931l5.843-0.013l0.286,134.033l42.14-0.09L398.155,367.753z" data-original="#FF991F" class="active-path" data-old_color="#0082FF"/>
	<path style="fill:#0089FF" d="M205.038,367.855c22.22,0,40.233-17.468,40.233-39.017v-85.465   c0-40.709-28.071-75.057-66.464-85.843c-38.393,10.787-66.464,45.134-66.464,85.843v85.465c0,21.548,18.013,39.017,40.234,39.017   h5.843v134.143h42.261V367.855H205.038z" data-original="#FF991F" class="active-path" data-old_color="#0082FF"/>
	<path style="fill:#0089FF" d="M365.762,72.361c-14.474,6.923-24.459,21.714-24.423,38.826   c0.036,17.044,10.003,31.746,24.413,38.643c14.474-6.923,24.459-21.714,24.423-38.826C390.139,93.96,380.172,79.258,365.762,72.361   z" data-original="#FF991F" class="active-path" data-old_color="#0082FF"/>
	<path style="fill:#0089FF" d="M168.831,72.355c-14.442,6.91-24.418,21.656-24.418,38.734s9.977,31.824,24.418,38.734   c14.442-6.91,24.418-21.656,24.418-38.734S183.273,79.265,168.831,72.355z" data-original="#FF991F" class="active-path" data-old_color="#0082FF"/>
</g><circle cx="441.64" cy="338.1" r="10" data-original="#000000" class=""/><circle cx="60.966" cy="338.1" r="10" data-original="#000000" class=""/><path style="fill:#FFFFFF;" d="M242.602,349.869c-25.2,0-45.628-19.811-45.628-44.248v-96.924c0-47.556,33.779-87.456,79.337-98.382  c-8.063-1.934-16.493-2.967-25.172-2.967l0,0c-57.719,0-104.51,45.375-104.51,101.349v96.924c0,24.437,20.428,44.248,45.628,44.248  h6.627v152.129h50.345V349.869H242.602z" data-original="#FFFFFF" class=""/><g>
	<path style="fill:#001EFF" d="M310.021,349.869c25.2,0,45.628-19.811,45.628-44.248v-96.924c0-47.556-33.779-87.456-79.337-98.382   c-45.558,10.926-79.337,50.826-79.337,98.382v96.924c0,24.437,20.428,44.248,45.628,44.248h6.627v152.129h55.851V349.869H310.021z" data-original="#FFD41D" class="" data-old_color="#0026FF"/>
	<path style="fill:#001EFF" d="M267.312,14.002c-17.261,7.481-29.34,24.663-29.34,44.673s12.079,37.192,29.34,44.673   c17.26-7.481,29.339-24.663,29.339-44.673S284.573,21.483,267.312,14.002z" data-original="#FFD41D" class="" data-old_color="#0026FF"/>
</g><path d="M494.298,491.996h-85.876l-0.525-245.772c-0.012-5.517-4.487-9.98-10.001-9.98c-0.007,0-0.015,0-0.022,0  c-5.524,0.012-9.992,4.499-9.98,10.023l0.525,245.729H359.37l-0.257-109.348c-0.013-5.516-4.488-9.978-10.001-9.978  c-0.008,0-0.016,0-0.024,0c-5.524,0.013-9.992,4.501-9.978,10.025l0.257,109.301h-24.285v-132.36  c28.31-2.503,50.569-25.767,50.569-54.016v-96.924c0-15.412-3.27-30.519-9.525-44.471c19.751,1.319,38.136,9.355,52.28,23.013  c15.478,14.946,24.027,34.82,24.071,55.971l0.183,56.916c0.018,5.513,4.492,9.97,10.001,9.97c0.011,0,0.022,0,0.033,0  c5.523-0.018,9.987-4.51,9.97-10.034l-0.183-56.905c-0.057-26.6-10.775-51.569-30.18-70.307  c-11.084-10.703-24.249-18.63-38.597-23.439c10.163-9.673,16.505-23.323,16.473-38.427c-0.063-29.142-23.79-52.807-52.919-52.807  c-0.038,0-0.077,0-0.114,0c-8.486,0.019-16.924,2.097-24.401,6.01c-4.894,2.562-6.785,8.606-4.223,13.5  c2.563,4.894,8.608,6.785,13.5,4.223c4.706-2.463,9.809-3.718,15.168-3.73c18.179-0.009,32.948,14.696,32.987,32.846  s-14.696,32.948-32.846,32.987c-0.431,0.001-0.852,0.038-1.267,0.092c-0.533,0.022-1.065,0.041-1.599,0.071  c-14.45-19.776-34.736-34.122-57.84-41.402c12.266-10.762,20.033-26.535,20.033-44.098C306.653,26.321,280.332,0,247.979,0  c-32.354,0-58.675,26.321-58.675,58.675c0,18.414,8.534,34.866,21.847,45.631c-21.208,7.654-39.794,21.365-53.292,39.812  c-1.584-0.071-3.166-0.113-4.74-0.113c-0.748,0-1.494,0.012-2.239,0.028c-0.183-0.01-0.363-0.028-0.548-0.028  c-18.15,0-32.916-14.766-32.916-32.916s14.766-32.916,32.916-32.916c5.486,0,10.913,1.374,15.693,3.973  c4.853,2.637,10.925,0.843,13.565-4.01c2.638-4.853,0.843-10.926-4.01-13.565c-7.704-4.189-16.435-6.403-25.249-6.403  c-29.18,0-52.92,23.74-52.92,52.92c0,15.89,7.05,30.156,18.174,39.865c-37.813,14.581-64.622,50.512-64.622,92.42v56.72  c0,5.524,4.478,10.002,10.002,10.002s10.002-4.478,10.002-10.002v-56.72c0-41.48,33.116-75.606,75.144-79.055  c-6.227,13.925-9.484,28.998-9.484,44.378v96.924c0,28.808,23.147,52.433,52.255,54.141v132.234h-27.248V382.668  c0-5.524-4.478-10.002-10.002-10.002s-10.002,4.478-10.002,10.002v109.328h-24.586v-245.65c0-5.524-4.478-10.002-10.002-10.002  s-10.002,4.478-10.002,10.002v245.65H17.702c-5.524,0-10.002,4.478-10.002,10.002C7.7,507.522,12.178,512,17.702,512h476.597  c5.524,0,10.002-4.478,10.002-10.002C504.299,496.474,499.822,491.996,494.298,491.996z M247.979,20.004  c21.323,0,38.67,17.348,38.67,38.671s-17.348,38.671-38.67,38.671c-21.323,0-38.671-17.348-38.671-38.671  S226.656,20.004,247.979,20.004z M156.63,305.621v-96.924c0-17.31,5.034-34.159,14.558-48.724  c17.452-26.689,47.34-42.623,79.95-42.623c32.664,0,62.579,15.975,80.021,42.734c9.477,14.54,14.487,31.35,14.487,48.613v96.924  c0,17.232-13.31,31.525-30.565,33.895V212.068c0-5.524-4.478-10.002-10.002-10.002c-5.524,0-10.002,4.478-10.002,10.002v279.928  h-35.622V352.849c0-5.524-4.478-10.002-10.002-10.002s-10.002,4.478-10.002,10.002v139.148h-30.565V212.068  c0-5.524-4.478-10.002-10.002-10.002s-10.002,4.478-10.002,10.002v127.641C170.815,338.069,156.63,323.41,156.63,305.621z" data-original="#000000" class=""/></g> </svg>
