<?xml version="1.0" encoding="iso-8859-1"?>
<!-- Generator: Adobe Illustrator 19.0.0, SVG Export Plug-In . SVG Version: 6.00 Build 0)  -->
<svg version="1.1" id="Capa_1" xmlns="http://www.w3.org/2000/svg" xmlns:xlink="http://www.w3.org/1999/xlink" x="0px" y="0px"
	 viewBox="0 0 480.24 480.24" style="enable-background:new 0 0 480.24 480.24;" xml:space="preserve">
<g>
	
		<linearGradient id="SVGID_1_" gradientUnits="userSpaceOnUse" x1="-26.7652" y1="557.6453" x2="-26.7652" y2="617.1083" gradientTransform="matrix(8 0 0 -8 454.2417 4943.1631)">
		<stop  offset="0" style="stop-color:#006DF0"/>
		<stop  offset="1" style="stop-color:#00E7F0"/>
	</linearGradient>
	<path style="fill:url(#SVGID_1_);" d="M384.108,336.24h-95.464c-4.418,0-8-3.582-8-8s3.582-8,8-8h95.464c44.183,0,80-35.817,80-80
		s-35.817-80-80-80h-1.04c-4.418,0.001-8.001-3.58-8.001-7.999c0-0.362,0.024-0.723,0.073-1.081c0.665-4.945,0.989-9.93,0.968-14.92
		c0.131-66.274-53.489-120.106-119.763-120.236c-55.126-0.109-103.235,37.355-116.637,90.828c-1.026,3.808-4.63,6.337-8.56,6.008
		c-3.667-0.389-7.352-0.59-11.04-0.6c-57.438,0-104,46.562-104,104s46.562,104,104,104h72.088c4.418,0,8,3.582,8,8s-3.582,8-8,8
		h-72.088c-66.274,0-120-53.726-120-120s53.726-120,120-120c1.928,0,3.88,0.056,5.904,0.16
		c21.89-71.85,97.882-112.351,169.732-90.46c57.318,17.463,96.454,70.381,96.364,130.3c0,2.848-0.088,5.6-0.248,8.312
		c52.847,4.271,92.226,50.574,87.955,103.421C475.785,297.839,434.136,336.25,384.108,336.24z"/>
	
		<linearGradient id="SVGID_2_" gradientUnits="userSpaceOnUse" x1="-26.7667" y1="557.6453" x2="-26.7667" y2="617.1083" gradientTransform="matrix(8 0 0 -8 454.2417 4943.1631)">
		<stop  offset="0" style="stop-color:#006DF0"/>
		<stop  offset="1" style="stop-color:#00E7F0"/>
	</linearGradient>
	<path style="fill:url(#SVGID_2_);" d="M336.276,245.088l-96.168-96.16l-96.168,96.16l11.32,11.32l76.848-76.856V480.24h16V179.552
		l76.848,76.856L336.276,245.088z"/>
</g>
<g>
</g>
<g>
</g>
<g>
</g>
<g>
</g>
<g>
</g>
<g>
</g>
<g>
</g>
<g>
</g>
<g>
</g>
<g>
</g>
<g>
</g>
<g>
</g>
<g>
</g>
<g>
</g>
<g>
</g>
</svg>
