<svg xmlns="http://www.w3.org/2000/svg" viewBox="0 0 512 512"><path d="M69.709 0v60.048H39.674v30h30.035v30.317H39.674v30h30.035v30.317H39.674v30h30.035V241H39.674v30h30.035v30.317H39.674v30h30.035v30.317H39.674v30h30.035v30.317H39.674v30h30.035V512h402.617V0H69.709zm216.309 350.898v30.566h-30v-30.566c-26.882-3.696-47.658-26.803-47.658-54.684h30c0 13.903 11.311 25.214 25.214 25.214h14.89c13.903 0 25.214-11.311 25.214-25.214 0-13.903-11.312-25.214-25.215-25.214h-14.89c-30.445 0-55.214-24.769-55.214-55.214 0-27.881 20.777-50.987 47.658-54.684v-30.566h30v30.566c26.882 3.696 47.659 26.802 47.659 54.684h-30c0-13.903-11.311-25.214-25.214-25.214h-14.89c-13.903 0-25.214 11.311-25.214 25.214 0 13.903 11.312 25.214 25.215 25.214h14.89c30.445 0 55.214 24.769 55.214 55.214 0 27.882-20.777 50.987-47.659 54.684z"/></svg>