<svg xmlns="http://www.w3.org/2000/svg" viewBox="0 0 492 492"><path d="M370.5 254c-14.667-11.333-36.667-20.667-66-28l-23-5v-97c.667.667 1.333 1 2 1s1 .333 1 1c19.334 9.333 29.668 25.333 31 48h77c-1.333-40-16.333-70.667-45-92-18.667-14-40.667-23.333-66-28V0h-71v52c-33.333 4-59.667 14.667-79 32-25.333 22.667-38 51.334-38 86 0 37.333 13 65 39 83 14 10 40 19.333 78 28v104c-14-4-24.667-10.333-32-19-8-9.333-13-22-15-38h-76c0 39.333 14.333 70.333 43 93 20.667 16 47.333 26.333 80 31v40h71v-39c34.667-4.667 62.333-15.667 83-33 26.667-23.333 40-52.667 40-88 0-34-11.333-60-34-78zm-160-50c-11.333-3.333-19.333-6.333-24-9-12.667-6.667-19-17-19-31 0-15.333 6.333-27 19-35 6.667-4 14.667-7.333 24-10v85zm83 179c-3.333 1.333-7.333 2.333-12 3v-89c12.667 4 22.333 8 29 12 11.333 7.333 17 17.333 17 30 0 21.333-11.333 36-34 44z"/></svg>