<svg height="448pt" viewBox="0 0 448 448" width="448pt" xmlns="http://www.w3.org/2000/svg"><path d="M144 384c0 8.836-7.164 16-16 16s-16-7.164-16-16 7.164-16 16-16 16 7.164 16 16zm0 0M64 304c0 8.836-7.164 16-16 16s-16-7.164-16-16 7.164-16 16-16 16 7.164 16 16zm0 0M64 384c0 8.836-7.164 16-16 16s-16-7.164-16-16 7.164-16 16-16 16 7.164 16 16zm0 0M328 0c-66.273 0-120 53.727-120 120s53.727 120 120 120 120-53.727 120-120C447.926 53.758 394.242.074 328 0zm0 232c-61.855 0-112-50.145-112-112S266.145 8 328 8s112 50.145 112 112c-.066 61.828-50.172 111.934-112 112zm0 0M144 304c0 8.836-7.164 16-16 16s-16-7.164-16-16 7.164-16 16-16 16 7.164 16 16zm0 0"/><path d="M328 24c-53.02 0-96 42.98-96 96s42.98 96 96 96 96-42.98 96-96c-.059-52.996-43.004-95.941-96-96zm48 72a8 8 0 0 1-16 0v-8a8 8 0 0 0-8-8h-48a8 8 0 0 0-8 8v16a8 8 0 0 0 8 8h48c13.254 0 24 10.746 24 24v16c0 13.254-10.746 24-24 24h-16v16a8 8 0 0 1-16 0v-16h-16c-13.254 0-24-10.746-24-24v-8a8 8 0 0 1 16 0v8a8 8 0 0 0 8 8h48a8 8 0 0 0 8-8v-16a8 8 0 0 0-8-8h-48c-13.254 0-24-10.746-24-24V88c0-13.254 10.746-24 24-24h16V48a8 8 0 0 1 16 0v16h16c13.254 0 24 10.746 24 24zm0 0M208 288c-8.836 0-16 7.164-16 16v80c0 8.836 7.164 16 16 16s16-7.164 16-16v-80c0-8.836-7.164-16-16-16zm0 0M32 168v32c0 13.254 10.746 24 24 24h144a23.996 23.996 0 0 0 23.04-17.602A135.506 135.506 0 0 1 194.237 144H56c-13.254 0-24 10.746-24 24zm0 0"/><path d="M256 235.2a136.267 136.267 0 0 1-20.863-16.087A40.107 40.107 0 0 1 200 240H56c-22.082-.027-39.973-17.918-40-40v-32c.027-22.082 17.918-39.973 40-40h136.406c-.16-2.664-.406-5.297-.406-8s.246-5.336.406-8H24c-13.254 0-24 10.746-24 24v288c0 13.254 10.746 24 24 24h208c13.254 0 24-10.746 24-24zM48 416c-17.672 0-32-14.328-32-32s14.328-32 32-32 32 14.328 32 32-14.328 32-32 32zm0-80c-17.672 0-32-14.328-32-32s14.328-32 32-32 32 14.328 32 32-14.328 32-32 32zm80 80c-17.672 0-32-14.328-32-32s14.328-32 32-32 32 14.328 32 32-14.328 32-32 32zm0-80c-17.672 0-32-14.328-32-32s14.328-32 32-32 32 14.328 32 32-14.328 32-32 32zm112 48c0 17.672-14.328 32-32 32s-32-14.328-32-32v-80c0-17.672 14.328-32 32-32s32 14.328 32 32zm0 0"/></svg>