<svg height="640" viewBox="0 -8 480 480" width="640" xmlns="http://www.w3.org/2000/svg"><path d="M16 96h40l32 24V96h40c8.84 0 16-7.16 16-16V16c0-8.84-7.16-16-16-16H16C7.16 0 0 7.16 0 16v64c0 8.84 7.16 16 16 16zm8-72h96v16H24zm0 32h96v16H24zM464 0H352c-8.84 0-16 7.16-16 16v64c0 8.84 7.16 16 16 16h40v24l32-24h40c8.84 0 16-7.16 16-16V16c0-8.84-7.16-16-16-16zm-8 72h-96V56h96zm0-32h-96V24h96zM177.473 256c3.312-9.29 12.113-16 22.527-16h80c10.414 0 19.215 6.71 22.527 16H304c5.855 0 11.273 1.695 16 4.45V232c0-44.113-35.887-80-80-80s-80 35.887-80 80v28.45c4.727-2.755 10.145-4.45 16-4.45zm0 0"/><path d="M200 256c-4.414 0-8 3.586-8 8v32c0 26.473 21.527 48 48 48s48-21.527 48-48v-32c0-4.414-3.586-8-8-8zm104 40c0 2.71-.223 5.375-.55 8h.55c8.824 0 16-7.176 16-16s-7.176-16-16-16zm-128 8h.55c-.327-2.625-.55-5.29-.55-8v-24c-8.824 0-16 7.176-16 16s7.176 16 16 16zm163.09 91.68l-61.336-17.696-.168.672c-3.656 14.617-15.305 25.406-29.578 28.414V464h120v-29.887c-.008-17.715-11.895-33.52-28.918-38.433zM280 448h-16v-16h16zm-17.937-73.215l1.937-7.754V355.29c-7.414 3.016-15.512 4.711-24 4.711s-16.586-1.695-24-4.71v11.741l1.938 7.754C220.48 384.91 229.542 392 240 392s19.52-7.09 22.063-17.215zm-59.637 3.871l-.168-.672-61.336 17.696C123.887 400.594 112 416.398 112 434.113V464h120v-56.93c-14.273-3.007-25.922-13.797-29.574-28.414zm0 0"/><path d="M455.762 281.938L416 272l-.016-14.465C430.328 249.23 440 233.762 440 216v-13.984c0-26.282-20.258-49.2-46.52-49.993-.496-.015-.984.032-1.48.032s-.977-.047-1.48-.032c-26.262.786-46.52 23.704-46.52 49.993V216c0 17.762 9.672 33.23 24.016 41.535L368 272l-33.047 8.266c.621 2.488 1.047 5.054 1.047 7.734 0 17.672-14.328 32-32 32v24h176v-31.016c0-14.68-9.992-27.48-24.238-31.046zM176 320c-17.672 0-32-14.328-32-32 0-2.68.426-5.246 1.047-7.734L112 272l-.016-14.465C126.328 249.23 136 233.762 136 216v-13.984c0-26.282-20.258-49.2-46.52-49.993-.496-.015-.984.032-1.48.032s-.977-.047-1.48-.032C60.258 152.81 40 175.727 40 202.016V216c0 17.762 9.672 33.23 24.016 41.535L64 272l-39.762 9.938C9.992 285.503 0 298.305 0 312.983V344h176zm0 0"/></svg>