<svg height="512pt" viewBox="0 0 512 512" width="512pt" xmlns="http://www.w3.org/2000/svg"><path d="M0 91h422v30H0zm45 210h15v-45c0-41.352 33.648-75 75-75h287v-30H0v105c0 24.813 20.188 45 45 45zM422 45c0-24.813-20.188-45-45-45H45C20.187 0 0 20.188 0 45v16h422zM165 301h62v30h-62zm0 0"/><path d="M467 211H135c-24.813 0-45 20.188-45 45v165h422V256c0-24.813-20.188-45-45-45zm-165 60h30c8.29 0 15 6.71 15 15s-6.71 15-15 15h-30c-8.29 0-15-6.71-15-15s6.71-15 15-15zm-45 75c0 8.29-6.71 15-15 15h-92c-8.29 0-15-6.71-15-15v-60c0-8.29 6.71-15 15-15h92c8.29 0 15 6.71 15 15zm105 15h-60c-8.29 0-15-6.71-15-15s6.71-15 15-15h60c8.29 0 15 6.71 15 15s-6.71 15-15 15zm90 0h-30c-8.29 0-15-6.71-15-15s6.71-15 15-15h30c8.29 0 15 6.71 15 15s-6.71 15-15 15zm0-60h-60c-8.29 0-15-6.71-15-15s6.71-15 15-15h60c8.29 0 15 6.71 15 15s-6.71 15-15 15zM90 467c0 24.813 20.188 45 45 45h332c24.813 0 45-20.188 45-45v-16H90zm0 0"/></svg>