<svg xmlns="http://www.w3.org/2000/svg" width="512" height="512" viewBox="0 0 79.536 79.535"><path d="M69.03 8.349l-10.444 9.72H20.94l-10.444-9.72s5.202-7.28 13.769-8.235c8.389-.935 11.301 4.209 15.506 4.422 4.191-.212 7.112-5.357 15.49-4.422 8.575.954 13.769 8.235 13.769 8.235zM41.208 55.012v7.337c1.113-.176 2.024-.605 2.719-1.305.699-.704 1.051-1.518 1.051-2.454 0-.834-.3-1.564-.885-2.165-.587-.616-1.55-1.077-2.885-1.413zm-6.116-9.394c0 .668.24 1.279.717 1.849.477.58 1.199 1.035 2.162 1.388v-6.509c-.878.243-1.574.673-2.092 1.279-.525.605-.787 1.258-.787 1.993zm40.271 25.218s-2.269 8.699-12.707 8.699h-45.76c-10.452 0-12.72-8.699-12.72-8.699-6.835-30.155 13.95-46.508 13.95-46.508h43.287s20.774 16.358 13.95 46.508zm-24.928-12.92c0-2.04-.642-3.697-1.942-4.996-1.294-1.301-3.718-2.352-7.285-3.175V42.4c1.439.52 2.33 1.529 2.677 3l5.64-.615c-.389-1.875-1.284-3.377-2.672-4.495-1.398-1.118-3.283-1.799-5.645-2.043v-1.866h-3.236v1.866c-2.556.212-4.601 1.021-6.139 2.413-1.543 1.401-2.307 3.125-2.307 5.181 0 2.04.673 3.754 2.04 5.188 1.359 1.419 3.495 2.48 6.405 3.185v7.871c-.8-.321-1.53-.85-2.183-1.574a5.926 5.926 0 0 1-1.336-2.595l-5.817.523c.44 2.47 1.468 4.381 3.076 5.732 1.605 1.361 3.689 2.164 6.26 2.423v3.423h3.236v-3.516c2.899-.348 5.157-1.305 6.783-2.858 1.632-1.548 2.445-3.463 2.445-5.727z"/></svg>