<svg height="532" viewBox="0 0 399.848 399" width="532" xmlns="http://www.w3.org/2000/svg"><path d="M399.848 168.422c-.028-60.774-32.86-116.797-85.868-146.524-53.007-29.722-117.93-28.515-169.796 3.157a184.102 184.102 0 0 1 148.464 16.46 8.002 8.002 0 0 1-8.09 13.81 167.72 167.72 0 0 0-84.71-22.903 166.092 166.092 0 0 0-87.36 24.582c65.43-20.719 136.957-3.266 185.492 45.262 48.54 48.523 66.004 120.046 45.297 185.484 32.008-52.45 32.793-118.195 2.051-171.395a8 8 0 1 1 13.84-8 183.966 183.966 0 0 1 16.129 147.473 166.596 166.596 0 0 0 24.55-87.406zm-58.778-73.36a8 8 0 0 1-11.261-1.113 169.958 169.958 0 0 0-23.106-23.199 8.003 8.003 0 0 1-1.074-11.27 7.998 7.998 0 0 1 11.266-1.074 185.864 185.864 0 0 1 25.289 25.367 8.005 8.005 0 0 1-1.113 11.29zm0 0"/><path d="M313.262 316.707c38.117-65.91 27.18-149.21-26.664-203.047-53.844-53.836-137.149-64.765-203.055-26.64-6.332 3.699-12.418 7.8-18.223 12.28C13.746 139.13-10.148 205.188 4.016 268.79c14.168 63.605 63.836 113.28 127.437 127.456 63.602 14.176 129.664-9.707 169.496-61.273a164.785 164.785 0 0 0 12.313-18.266zm-199.2 40.8a7.99 7.99 0 0 1-4.613 4.032 7.99 7.99 0 0 1-6.113-.414 141.878 141.878 0 0 1-37.344-26.91 139.735 139.735 0 0 1-21.023-26.793 8.003 8.003 0 0 1-.242-8.082 8.02 8.02 0 0 1 6.93-4.164 8.008 8.008 0 0 1 7.023 4.004 123.611 123.611 0 0 0 18.664 23.754 125.934 125.934 0 0 0 33.136 23.886c3.958 1.961 5.579 6.762 3.614 10.72zm5.786-85.085h16c0 17.672 14.328 32 32 32s32-14.328 32-32c0-17.676-14.328-32-32-32-24.848-.145-45.477-19.227-47.555-43.985s15.082-47.011 39.555-51.296v-16.72h16v16.72c23.066 3.918 39.957 23.882 40 47.28h-16c0-17.675-14.328-32-32-32s-32 14.325-32 32c0 17.673 14.328 32 32 32 24.843.145 45.472 19.224 47.554 43.981 2.078 24.762-15.082 47.016-39.554 51.297v16.723h-16v-16.723c-23.067-3.918-39.957-23.883-40-47.277zM273.8 329.926a9.02 9.02 0 0 1-.586.574 98.933 98.933 0 0 1-3.567 3.754 144.305 144.305 0 0 1-129.753 39.375c-4.332-.86-7.153-5.07-6.293-9.402a8.002 8.002 0 0 1 9.406-6.293 128.007 128.007 0 0 0 115.336-35.008 84.518 84.518 0 0 0 3.504-3.723c.086-.094.191-.183.289-.277l.11-.106c.128-.12.241-.246.366-.36 42.867-46.843 44.688-118.105 4.274-167.077a131.379 131.379 0 0 0-8.567-9.418c-41.234-41.227-105.129-49.356-155.37-19.762-50.24 29.594-74.114 89.414-58.048 145.465a8.005 8.005 0 0 1-5.504 9.89 8.004 8.004 0 0 1-9.886-5.503 143.337 143.337 0 0 1 20.336-122.13c30.746-44.167 83.558-67.503 136.918-60.503 53.359 7.004 98.359 43.172 116.672 93.777s6.875 107.2-29.645 146.727zm0 0"/></svg>