<svg xmlns="http://www.w3.org/2000/svg" viewBox="0 0 60 60"><path d="M57.49 27H54v-7.268A2.736 2.736 0 0 0 51.268 17H50V0H10v2H7v2H4v6H2.732A2.736 2.736 0 0 0 0 12.732v45.23l.058.002c.078.367.234.719.471 1.029A2.54 2.54 0 0 0 2.565 60h44.759c1.156 0 2.174-.779 2.45-1.813L60 30.149v-.177C60 28.25 58.944 27 57.49 27zM18 5h10a1 1 0 1 1 0 2H18a1 1 0 1 1 0-2zm0 7h24a1 1 0 1 1 0 2H18a1 1 0 1 1 0-2zm0 7h24a1 1 0 1 1 0 2H18a1 1 0 1 1 0-2zM2 51.526V12.732c0-.404.329-.732.732-.732H4v34.041l-2 5.485zM6 6h1v31.813l-1 2.743V6zm46 21H12.731c-1.156 0-2.174.779-2.45 1.813L9 32.328V4h1v22h40v-7h1.268c.403 0 .732.328.732.732V27z"/></svg>