<svg xmlns="http://www.w3.org/2000/svg" width="85.988" height="85.987"><path d="M77.993 30.884a4.878 4.878 0 0 0-4.878 4.868 4.873 4.873 0 0 0 9.745 0 4.875 4.875 0 0 0-4.867-4.868zm-69.988 0a4.878 4.878 0 0 0-4.878 4.868 4.874 4.874 0 0 0 9.748 0 4.876 4.876 0 0 0-4.87-4.868zm55.499-8.854c-3.997 0-7.239 3.25-7.239 7.25a7.24 7.24 0 0 0 7.239 7.236c3.998 0 7.25-3.244 7.25-7.236 0-3.996-3.252-7.25-7.25-7.25zm22.484 44.058h-8.254V50.896c0-2.61-.767-5.033-1.999-7.146.726-.212 1.471-.363 2.258-.363 4.401 0 7.995 3.594 7.995 8.006v14.695zM22.483 22.03c-4 0-7.25 3.25-7.25 7.25 0 3.992 3.25 7.236 7.25 7.236 3.987 0 7.237-3.244 7.237-7.236 0-3.996-3.249-7.25-7.237-7.25zM8.005 43.387c.787 0 1.522.15 2.25.363-1.245 2.113-1.999 4.536-1.999 7.146v15.192H0V51.393c0-4.413 3.596-8.006 8.005-8.006zM42.986 7.555c-5.9 0-10.71 4.805-10.71 10.711 0 5.905 4.805 10.716 10.71 10.716 5.906 0 10.717-4.811 10.717-10.716.005-5.907-4.811-10.711-10.717-10.711zm32.097 64.187H62.438V48.627c0-3.179-.839-6.136-2.195-8.787 1.035-.306 2.123-.523 3.262-.523 6.38 0 11.578 5.188 11.578 11.579v20.846zM23.537 48.627v23.115H10.908V50.896c0-6.385 5.191-11.579 11.581-11.579 1.139 0 2.216.217 3.249.523-1.357 2.651-2.201 5.608-2.201 8.787zm2.651 29.806h33.598V48.627c0-9.264-7.539-16.798-16.801-16.798-9.269 0-16.797 7.534-16.797 16.798v29.806z"/></svg>