<svg xmlns="http://www.w3.org/2000/svg" width="122.981" height="122.981"><path d="M97.196 36.995a681.424 681.424 0 0 1 5.917 2.757 3.31 3.31 0 0 0 4.407-1.579 3.31 3.31 0 0 0-1.578-4.408c-.124-.057-1.321-.624-2.893-1.357a10.167 10.167 0 0 1-5.853 4.587zM50.824 36.72l-1.436 1.311-1.893-1.783a10.03 10.03 0 0 1-1.153-.258c-.782.354-1.714.839-2.677 1.407.07-.414.067-.834-.015-1.241.428-.25.849-.479 1.263-.697a10.427 10.427 0 0 1-5.05-4.955c-.582.354-1.153.716-1.698 1.084-.797-.457-1.564-.892-2.169-1.233a10.424 10.424 0 0 1-4.975 5.033c1.793.932 6.154 3.349 7.365 4.203.265.187.551.314.844.416v17.664c0 1.518.244 2.963.699 4.28a4.637 4.637 0 0 0-.021.426v3.967h.026c-.002.057-.017.111-.017.169l.001 34.886a4.306 4.306 0 0 0 8.611 0l-.001-34.886c0-.058-.015-.112-.017-.169h.647c-.002.057-.017.111-.017.168l-.002 34.887a4.307 4.307 0 0 0 8.611 0l.002-34.887c0-.059-.015-.111-.017-.169h.05l.003-4.509s.762-1.02.762-4.718c0-1.987.202-9.395.202-9.395l.021-8.101c-.045-.021-6.162-3.374-6.162-3.374l-1.787.474z"/><path d="M28.547 36.51l-1.893 1.451-1.436-1.312c-3.134 1.429-6.904 3.21-6.955 3.234a4.032 4.032 0 0 1-1.735.391 4.054 4.054 0 0 1-1.884-.477l-.013.013c-3.626-2.909-6.65-7.946-7.71-10.114a3.644 3.644 0 0 0-4.869-1.686 3.644 3.644 0 0 0-1.685 4.869c.643 1.323 6.533 13.002 15.42 15.784.513.16 1.026.279 1.541.374.058 2.24.165 6.561.165 8.01 0 3.699.761 4.719.761 4.719l.003 4.508h.066c-.002.059-.018.114-.018.174l.002 34.885a4.306 4.306 0 0 0 8.611 0l-.001-34.887c0-.059-.015-.113-.018-.172h.648c-.002.059-.018.114-.018.172l-.002 34.887a4.306 4.306 0 1 0 8.611 0l.002-34.885c0-.06-.015-.115-.018-.174h.011v-3.967a4.98 4.98 0 0 0-.021-.426c.455-1.318.698-2.763.698-4.281V39.606c-1.548.124-6.21-3.26-6.782-3.52-.374.109-1.089.358-1.481.424z"/><path d="M16.411 39.115c.485 0 .978-.104 1.445-.326.048-.023 3.069-1.45 5.953-2.775a10.402 10.402 0 0 1-6.104-4.636c-1.498.7-2.624 1.23-2.743 1.288a3.387 3.387 0 0 0 1.449 6.449z"/><circle cx="49.391" cy="26.195" r="9.384"/><circle cx="26.76" cy="26.195" r="9.384"/><path d="M73.842 37.051l-1.437 1.311-1.892-1.783a10.047 10.047 0 0 1-1.154-.258c-.781.355-1.713.839-2.677 1.407.07-.414.066-.833-.016-1.241.429-.249.85-.479 1.263-.697a10.427 10.427 0 0 1-5.05-4.955c-.582.354-1.153.716-1.698 1.085-.797-.457-1.565-.892-2.169-1.234a10.424 10.424 0 0 1-4.975 5.033c1.793.932 6.154 3.349 7.365 4.203.265.187.551.314.844.417v17.663c0 1.518.244 2.963.698 4.281-.013.14-.021.281-.021.426v3.967h.027c-.002.057-.017.111-.017.17l.001 34.885a4.305 4.305 0 0 0 4.306 4.305 4.305 4.305 0 0 0 4.306-4.305l-.001-34.887c0-.059-.016-.111-.018-.169h.647c-.002.058-.018.11-.018.168l-.002 34.886a4.307 4.307 0 0 0 8.612.002l.002-34.886c0-.058-.015-.112-.017-.17h.05l.003-4.509s.762-1.02.762-4.718c0-1.987.202-9.396.202-9.396l.021-8.1a7086.96 7086.96 0 0 1-6.162-3.375l-1.785.474z"/><circle cx="72.408" cy="26.525" r="9.384"/><circle cx="95.249" cy="26.659" r="9.384"/><path d="M120.933 27.74a3.646 3.646 0 0 0-4.871 1.677c-1.167 2.388-4.708 8.244-8.815 10.919-.57.299-1.21.472-1.875.472a4.02 4.02 0 0 1-1.733-.39c-.051-.024-3.82-1.805-6.955-3.233l-1.437 1.311-1.892-1.783a10 10 0 0 1-1.154-.258 29.13 29.13 0 0 0-2.677 1.407 3.41 3.41 0 0 0-.015-1.242c.428-.249.849-.479 1.263-.696a10.425 10.425 0 0 1-5.05-4.956c-.583.354-1.153.716-1.698 1.085-.797-.457-1.565-.892-2.169-1.234a10.422 10.422 0 0 1-4.975 5.034c1.793.933 6.153 3.349 7.364 4.203.266.186.552.314.845.417v17.664c0 1.517.243 2.962.698 4.279a4.66 4.66 0 0 0-.021.427v3.967h.025c-.002.058-.017.111-.017.169l.002 34.887a4.306 4.306 0 1 0 8.612-.002l-.001-34.886c0-.058-.016-.112-.018-.168h.647c0 .058-.016.111-.016.168l-.002 34.886a4.307 4.307 0 0 0 8.612.002l.002-34.887c0-.058-.015-.111-.017-.169h.05l.003-4.509s.762-1.02.762-4.718c0-1.607.132-6.753.184-8.667.434-.042.868-.109 1.302-.199l.033.014.014-.023a13.04 13.04 0 0 0 1.255-.319c8.887-2.782 14.778-14.461 15.42-15.784a3.647 3.647 0 0 0-1.685-4.865z"/></svg>