<?xml version="1.0" encoding="iso-8859-1"?>
<!-- Generator: Adobe Illustrator 19.0.0, SVG Export Plug-In . SVG Version: 6.00 Build 0)  -->
<svg version="1.1" id="Layer_1" xmlns="http://www.w3.org/2000/svg" xmlns:xlink="http://www.w3.org/1999/xlink" x="0px" y="0px"
	 viewBox="0 0 512.001 512.001" style="enable-background:new 0 0 512.001 512.001;" xml:space="preserve">
<g>
	<g>
		<g>
			<path d="M268.969,85.183c-0.681-12.547-11.109-22.297-23.526-22.297c-0.429,0-0.859,0.011-1.293,0.034l-33.399,1.815l0.16,2.938
				c0.522,9.601-2.727,18.83-9.147,25.987c-6.42,7.156-15.242,11.384-24.842,11.907l-83.171,4.52
				c-0.654,0.036-1.315,0.053-1.968,0.053c-19.108,0-34.889-14.953-35.926-34.04l-0.16-2.938l-33.399,1.815
				c-6.288,0.343-12.067,3.112-16.271,7.799c-4.204,4.688-6.331,10.732-5.99,17.02L16.95,411.095
				c0.341,6.288,3.112,12.067,7.799,16.271s10.736,6.323,17.02,5.99l81.773-4.443l-51.41-125.771
				c-2.652-6.487,0.457-13.897,6.944-16.549c6.487-2.65,13.897,0.457,16.549,6.945l54.743,133.914l57.528-3.126V210.804
				c0-3.365,1.338-6.593,3.717-8.973l60.411-60.411L268.969,85.183z"/>
			<path d="M509.32,127.431H347.107v101.14c0,7.008-5.683,12.69-12.69,12.69h-101.14v242.822c0,1.48,1.203,2.683,2.681,2.683H509.32
				c1.478,0,2.681-1.203,2.681-2.683v-353.97C512.003,128.634,510.798,127.431,509.32,127.431z M455.519,410.892H289.76
				c-7.008,0-12.69-5.683-12.69-12.69c0-7.008,5.683-12.69,12.69-12.69h165.759c7.007,0,12.69,5.683,12.69,12.69
				C468.209,405.209,462.526,410.892,455.519,410.892z M455.519,354.264H289.76c-7.008,0-12.69-5.683-12.69-12.69
				s5.683-12.69,12.69-12.69h165.759c7.007,0,12.69,5.683,12.69,12.69S462.526,354.264,455.519,354.264z M455.519,297.635H289.76
				c-7.008,0-12.69-5.683-12.69-12.69s5.683-12.69,12.69-12.69h165.759c7.007,0,12.69,5.683,12.69,12.69
				S462.526,297.635,455.519,297.635z"/>
			<polygon points="321.727,215.882 321.727,129.971 235.814,215.882 			"/>
			<path d="M77.36,76.785c0.486,8.947,8.134,15.806,17.081,15.32l79.572-4.324c8.948-0.486,15.807-8.133,15.321-17.081l-1.636-30.12
				c-0.486-8.948-8.133-15.807-17.082-15.321l-79.572,4.324c-8.948,0.486-15.807,8.133-15.321,17.082L77.36,76.785z"/>
		</g>
	</g>
</g>
<g>
</g>
<g>
</g>
<g>
</g>
<g>
</g>
<g>
</g>
<g>
</g>
<g>
</g>
<g>
</g>
<g>
</g>
<g>
</g>
<g>
</g>
<g>
</g>
<g>
</g>
<g>
</g>
<g>
</g>
</svg>
