<svg xmlns="http://www.w3.org/2000/svg" viewBox="0 0 512.001 512.001"><path d="M268.969 85.183c-.681-12.547-11.109-22.297-23.526-22.297-.429 0-.859.011-1.293.034l-33.399 1.815.16 2.938c.522 9.601-2.727 18.83-9.147 25.987-6.42 7.156-15.242 11.384-24.842 11.907l-83.171 4.52c-.654.036-1.315.053-1.968.053-19.108 0-34.889-14.953-35.926-34.04l-.16-2.938-33.399 1.815c-6.288.343-12.067 3.112-16.271 7.799a23.425 23.425 0 0 0-5.99 17.02L16.95 411.095c.341 6.288 3.112 12.067 7.799 16.271s10.736 6.323 17.02 5.99l81.773-4.443-51.41-125.771c-2.652-6.487.457-13.897 6.944-16.549 6.487-2.65 13.897.457 16.549 6.945l54.743 133.914 57.528-3.126V210.804c0-3.365 1.338-6.593 3.717-8.973l60.411-60.411-3.055-56.237z"/><path d="M509.32 127.431H347.107v101.14c0 7.008-5.683 12.69-12.69 12.69h-101.14v242.822a2.685 2.685 0 0 0 2.681 2.683H509.32a2.685 2.685 0 0 0 2.681-2.683v-353.97a2.683 2.683 0 0 0-2.681-2.682zm-53.801 283.461H289.76c-7.008 0-12.69-5.683-12.69-12.69 0-7.008 5.683-12.69 12.69-12.69h165.759c7.007 0 12.69 5.683 12.69 12.69s-5.683 12.69-12.69 12.69zm0-56.628H289.76c-7.008 0-12.69-5.683-12.69-12.69s5.683-12.69 12.69-12.69h165.759c7.007 0 12.69 5.683 12.69 12.69s-5.683 12.69-12.69 12.69zm0-56.629H289.76c-7.008 0-12.69-5.683-12.69-12.69s5.683-12.69 12.69-12.69h165.759c7.007 0 12.69 5.683 12.69 12.69s-5.683 12.69-12.69 12.69z"/><path d="M321.727 215.882v-85.911l-85.913 85.911zM77.36 76.785c.486 8.947 8.134 15.806 17.081 15.32l79.572-4.324c8.948-.486 15.807-8.133 15.321-17.081l-1.636-30.12c-.486-8.948-8.133-15.807-17.082-15.321l-79.572 4.324c-8.948.486-15.807 8.133-15.321 17.082l1.637 30.12z"/></svg>