<svg xmlns="http://www.w3.org/2000/svg" width="32" height="32"><path d="M32 22.327a3.096 3.096 0 0 0-3.092-3.093c-.637 0-1.227.199-1.717.528h-.002c0 .003-.002.003-.002.005a3.244 3.244 0 0 0-.566.485l.008.008c-.641.576-1.666 1.543-2.41 2.423a3.096 3.096 0 0 0-.717-1.093c-3.053-2.688-6.723-3.78-10.93-3.78-1.377 0-2.705.149-3.961.424-.037-.457-.063-.735-.063-.735H.359S0 20.497 0 24.193c0 3.697.359 6.694.359 6.694h8.189s.072-.78.15-1.893c1.219-.205 2.465.116 3.908 1.012 1.828 1.195 4.08 1.902 6.518 1.902 2.472 0 4.594-.729 6.36-1.955l.002.002.068-.052c.5-.353.973-.741 1.413-1.168.347-.354.814-.807 1.519-1.495 2.361-2.32 2.652-2.781 2.652-2.781l-.009.002A3.04 3.04 0 0 0 32 22.327zm-1.879 1.213c-.414.41-2.166 2.215-2.639 2.678-1.229 1.207-1.801 1.771-2.072 2.084l-.004-.006a7.93 7.93 0 0 1-.586.47c-1.584 1.071-3.557 1.711-5.695 1.711-2.158 0-4.146-.647-5.736-1.735h-.012c-1.375-.841-2.988-1.354-4.584-1.197.063-1.103.115-2.312.115-3.349 0-1.44-.1-3.211-.193-4.567a17.559 17.559 0 0 1 3.857-.428c4.12 0 7.762 1.362 9.995 3.495.263.293.429.679.429 1.101 0 .916-.744 1.658-1.658 1.658-.035 0-.067-.009-.103-.011l-.004.021c-.854-.03-2.188-.389-4.442-1.25l-.513 1.34c2.384.91 3.953 1.318 5.066 1.347v-.01a3.1 3.1 0 0 0 2.955-2.201v.002c.482-.801 2.287-2.472 3.312-3.383l.002.002.027-.026c.19-.171.354-.313.473-.416.216-.136.44-.193.798-.193.914 0 1.655.744 1.655 1.656 0 .453-.201.886-.443 1.207z"/><path d="M21.973 18.611c5.105 0 9.26-4.153 9.26-9.259s-4.152-9.26-9.26-9.26c-5.106 0-9.26 4.154-9.26 9.26s4.152 9.259 9.26 9.259zm0-16.905c4.215 0 7.646 3.432 7.646 7.646s-3.432 7.646-7.646 7.646c-4.217 0-7.646-3.432-7.646-7.646 0-4.215 3.429-7.646 7.646-7.646z"/><path d="M19.545 9.04c.197.23.48.441.848.637.365.193.855.338 1.467.43.174.029.348.066.521.115.178.045.338.109.486.188.146.08.268.176.361.287a.585.585 0 0 1 .141.393c0 .18-.09.324-.27.438-.184.111-.406.166-.682.166-.209 0-.396-.016-.559-.049a1.635 1.635 0 0 1-.439-.15 2.128 2.128 0 0 1-.389-.26 3.864 3.864 0 0 1-.385-.371h-1.51v2.266h1.51v-.338c.072.037.146.072.225.104l.229.102v.885h1.51v-.681c.324-.021.625-.09.9-.205.277-.113.518-.266.719-.453.201-.186.359-.404.475-.652s.174-.516.174-.803c0-.15-.025-.346-.082-.588a1.873 1.873 0 0 0-.371-.734c-.191-.248-.477-.477-.846-.689-.371-.213-.869-.365-1.494-.459-1.008-.15-1.51-.459-1.51-.926 0-.166.078-.32.24-.465.162-.143.396-.215.695-.215.209 0 .391.018.545.053.154.037.297.09.426.156.129.068.252.154.367.26a5.1 5.1 0 0 1 .355.361h1.52V5.577h-1.508V5.9a2.545 2.545 0 0 0-.605-.26v-.82H21.1v.713c-.295.043-.564.129-.812.254s-.463.283-.646.475a2.035 2.035 0 0 0-.578 1.429c0 .186.031.4.092.641.063.24.192.478.389.708z"/></svg>