<svg xmlns="http://www.w3.org/2000/svg" width="156.681" height="156.681"><path d="M71.313 68.171c-1.72 0-3.285-.487-4.734-1.193v7.03c0 1.288-.365 2.475-.91 3.565 1.771-1.422 3.924-2.394 6.36-2.394h13.305c2.502 0 4.713 1.002 6.503 2.497v-9.664c0-.722.305-1.339.414-2.03-1.79 1.278-3.854 2.188-6.205 2.188H71.313zM96.934 43.845v13.427c0 .237-.116.43-.128.655 1.468-1.203 3.221-1.994 5.078-2.521v-7.015a8.164 8.164 0 0 1-4.95-4.546z"/><path d="M95.648 97.941v.864c0 5.699-4.628 10.327-10.327 10.327H72.023c-5.697 0-10.324-4.64-10.324-10.327V85.507c0-1.894.648-3.562 1.541-5.09-1.373 1.041-2.993 1.766-4.847 1.766H50.55c-4.509 0-8.181-3.678-8.181-8.184v-7.843c0-4.515 3.672-8.181 8.181-8.181h7.843c.801 0 1.535.244 2.265.463-.042-.398-.237-.755-.237-1.166V42.536a10.85 10.85 0 0 1 3.218-7.706h-.767c-4.509 0-8.181-3.666-8.181-8.181V18.8c0-4.509 3.672-8.181 8.181-8.181h7.836c4.515 0 8.181 3.671 8.181 8.181v7.843c0 1.915-.762 3.604-1.87 4.999h9.021c4.871 0 8.854 3.276 10.242 7.696v-6.527c0-3.599 2.362-6.561 5.596-7.66v-7.943c0-8.403-6.875-15.281-15.277-15.281H15.284C6.872 1.927 0 8.805 0 17.208V139.47c0 8.402 6.878 15.283 15.284 15.283H86.6c8.415 0 15.283-6.881 15.283-15.283v-38.223c-2.367-.602-4.566-1.619-6.235-3.306zM37.984 48.372v-6.378c0-4.189 3.413-7.6 7.603-7.6h6.372c4.195 0 7.605 3.41 7.605 7.6v6.378c0 4.192-3.41 7.603-7.605 7.603h-6.372c-4.19 0-7.603-3.411-7.603-7.603z"/><path d="M96.928 88.686c0 4.47 3.653 8.129 8.135 8.129h20.667c4.469 0 8.129-3.659 8.129-8.129V68.013c0-4.469-3.66-8.135-8.129-8.135h-20.667c-4.476 0-8.135 3.659-8.135 8.135v20.673zM47.462 74.008a3.097 3.097 0 0 0 3.087 3.084h7.843a3.094 3.094 0 0 0 3.087-3.084v-7.846a3.097 3.097 0 0 0-3.087-3.087h-7.843a3.095 3.095 0 0 0-3.087 3.087v7.846zM43.087 48.372a2.504 2.504 0 0 0 2.506 2.506h6.372a2.517 2.517 0 0 0 2.512-2.506v-6.378a2.52 2.52 0 0 0-2.512-2.506h-6.372a2.51 2.51 0 0 0-2.506 2.506v6.378zM145.287 71.962a2.505 2.505 0 0 0 2.509 2.506h6.369a2.518 2.518 0 0 0 2.516-2.506v-6.379a2.524 2.524 0 0 0-2.516-2.508h-6.369a2.51 2.51 0 0 0-2.509 2.508v6.379zM122.478 23.781c0 1.084.883 1.97 1.967 1.97h5.005a1.982 1.982 0 0 0 1.974-1.97v-5.008c0-1.083-.896-1.97-1.974-1.97h-5.005a1.973 1.973 0 0 0-1.967 1.97v5.008zM101.385 40.66a3.097 3.097 0 0 0 3.087 3.087h7.837a3.103 3.103 0 0 0 3.094-3.087v-7.843a3.1 3.1 0 0 0-3.094-3.087h-7.843a3.1 3.1 0 0 0-3.087 3.087v7.843h.006zM59.784 26.644a3.1 3.1 0 0 0 3.087 3.087h7.836a3.104 3.104 0 0 0 3.093-3.087V18.8a3.098 3.098 0 0 0-3.093-3.087h-7.836a3.097 3.097 0 0 0-3.087 3.087v7.844zM129.846 48.266c0 2.883 2.351 5.234 5.23 5.234h13.299c2.88 0 5.23-2.351 5.23-5.234V34.967c0-2.88-2.351-5.23-5.23-5.23h-13.293a5.242 5.242 0 0 0-5.23 5.23v13.299h-.006zM66.792 98.806a5.241 5.241 0 0 0 5.231 5.23h13.298c2.887 0 5.237-2.35 5.237-5.23V85.507a5.244 5.244 0 0 0-5.237-5.236H72.023c-2.88 0-5.231 2.351-5.231 5.236v13.299zM65.514 57.271c0 3.191 2.606 5.803 5.8 5.803h14.732c3.185 0 5.803-2.612 5.803-5.803V42.536c0-3.179-2.618-5.791-5.803-5.791H71.313c-3.188 0-5.8 2.612-5.8 5.791v14.735z"/></svg>