<svg class="ldi-umk2mp" width="299" height="299" xmlns="http://www.w3.org/2000/svg" xmlns:xlink="http://www.w3.org/1999/xlink" viewBox="0 0 100 100" preserveAspectRatio="xMidYMid" style="background:0 0"><svg version="1.1" id="Layer_1" xmlns="http://www.w3.org/2000/svg" x="0" y="0" viewBox="0 0 100 100" style="transform-origin:50px 50px 0" xml:space="preserve"><style>.st7{fill:#333}</style><g style="transform-origin:50px 50px 0"><path d="M49.277 68.975a3.305 3.305 0 0 1-3.302-3.302v-.222c-4.177-1.31-7.329-4.572-8.208-8.623a3.3 3.3 0 0 1 .658-2.785 3.277 3.277 0 0 1 2.561-1.225h1.501c1.492 0 2.773.993 3.188 2.471.068.242.169.477.301.699v-2.752c-6.942-1.986-8.45-6.182-8.45-9.451 0-4.785 3.197-8.303 8.45-9.447v-.011a3.306 3.306 0 0 1 3.302-3.302h1.445a3.305 3.305 0 0 1 3.302 3.302v.222c4.177 1.31 7.329 4.572 8.208 8.623a3.3 3.3 0 0 1-.658 2.785 3.277 3.277 0 0 1-2.561 1.225h-1.501c-1.492 0-2.773-.993-3.188-2.471a2.907 2.907 0 0 0-.301-.699v2.824c7.314 2.288 8.45 6.802 8.45 9.379 0 4.785-3.197 8.303-8.45 9.447v.011a3.306 3.306 0 0 1-3.302 3.302h-1.445zm4.748-11.863c.4-.352.4-.71.4-.897 0-.131-.121-.327-.4-.558v1.455zm-8.05-14.224c-.4.352-.4.71-.4.897 0 .189 0 .446.4.759v-1.656z"/><g class="ld ld-heartbeat" style="transform-origin:50px 50px 0;animation-duration:.7s;animation-delay:-.626316s;animation-direction:normal"><path class="st7" d="M50.723 32.775c.857 0 1.552.695 1.552 1.552v1.58c4.156.82 7.423 3.833 8.248 7.636a1.551 1.551 0 0 1-1.508 1.889h-1.501c-.718 0-1.309-.503-1.503-1.193-.466-1.661-1.882-3.015-3.736-3.636v7.559c7.296 1.831 8.45 5.762 8.45 8.054 0 4.397-3.182 7.326-8.45 7.968v1.489c0 .857-.695 1.552-1.552 1.552h-1.445a1.552 1.552 0 0 1-1.552-1.552v-1.58c-4.156-.82-7.423-3.833-8.248-7.636a1.551 1.551 0 0 1 1.508-1.889h1.501c.718 0 1.309.503 1.503 1.193.466 1.661 1.882 3.015 3.736 3.636v-7.523c-3.463-.77-8.45-2.584-8.45-8.09 0-4.397 3.182-7.326 8.45-7.968v-1.489c0-.857.695-1.552 1.552-1.552h1.445m-2.998 14.388v-6.758c-1.954.32-3.9 1.187-3.9 3.38 0 .885.002 2.27 3.9 3.378m4.55 12.432c1.954-.32 3.9-1.187 3.9-3.38 0-1.668-1.98-2.706-3.9-3.323v6.703m-1.552-30.32h-1.445a5.061 5.061 0 0 0-4.854 3.65c-5.403 1.575-8.648 5.554-8.648 10.86 0 3.46 1.363 5.925 3.245 7.68a5.035 5.035 0 0 0-1.958 1.48 5.045 5.045 0 0 0-1.006 4.254c.933 4.298 4.064 7.822 8.278 9.522a5.062 5.062 0 0 0 4.943 4.004h1.445a5.061 5.061 0 0 0 4.854-3.65c5.403-1.575 8.648-5.554 8.648-10.86 0-1.67-.444-4.871-3.403-7.616a5.024 5.024 0 0 0 2.116-1.544 5.045 5.045 0 0 0 1.006-4.254c-.933-4.298-4.064-7.822-8.278-9.522a5.062 5.062 0 0 0-4.943-4.004z"/></g></g><g style="transform-origin:50px 50px 0"><path d="M79.57 55.332a3.374 3.374 0 0 1-2.4-.993l-8.268-8.266a1.75 1.75 0 0 1 1.238-2.987h4.912C73.56 30.486 62.889 20.867 50 20.867a25.183 25.183 0 0 0-22.369 13.545 1.743 1.743 0 0 1-1.55.938c-.28 0-.559-.067-.812-.2l-4.584-2.401a1.748 1.748 0 0 1-.738-2.361C25.824 19.164 37.34 12.192 50 12.192a33.79 33.79 0 0 1 33.768 30.894H89a1.751 1.751 0 0 1 1.238 2.987l-8.267 8.265a3.375 3.375 0 0 1-2.401.994z"/><g class="ld ld-heartbeat" style="transform-origin:50px 50px 0;animation-duration:.7s;animation-delay:-.552632s;animation-direction:normal"><path class="st7" d="M50 13.942c17.308 0 31.458 13.746 32.125 30.893H89L80.733 53.1a1.64 1.64 0 0 1-2.326 0l-8.267-8.265h6.81C76.288 30.542 64.454 19.117 50 19.117c-10.076 0-19.241 5.549-23.92 14.483l-4.584-2.401C27.071 20.555 37.993 13.942 50 13.942m0-3.5c-13.313 0-25.423 7.331-31.604 19.133a3.5 3.5 0 0 0 1.477 4.724l4.584 2.401a3.498 3.498 0 0 0 4.724-1.476A23.44 23.44 0 0 1 50 22.617c11.318 0 20.798 7.97 22.999 18.718H70.14a3.5 3.5 0 0 0-2.475 5.975l8.267 8.265a5.111 5.111 0 0 0 3.638 1.507 5.111 5.111 0 0 0 3.638-1.507l8.267-8.264A3.5 3.5 0 0 0 89 41.336h-3.667c-1.061-7.935-4.755-15.257-10.601-20.896C68.05 13.993 59.266 10.442 50 10.442z"/></g></g><g style="transform-origin:50px 50px 0"><path d="M50 87.808a33.79 33.79 0 0 1-33.768-30.894H11a1.751 1.751 0 0 1-1.238-2.987l8.267-8.265a3.37 3.37 0 0 1 2.4-.994c.907 0 1.759.353 2.4.993l8.268 8.266a1.75 1.75 0 0 1-1.238 2.987h-4.912C26.44 69.514 37.111 79.133 50 79.133c9.422 0 17.994-5.19 22.369-13.545a1.743 1.743 0 0 1 1.55-.938c.28 0 .559.067.812.2l4.584 2.401a1.748 1.748 0 0 1 .738 2.361C74.176 80.836 62.66 87.808 50 87.808z"/><g class="ld ld-heartbeat" style="transform-origin:50px 50px 0;animation-duration:.7s;animation-delay:-.478947s;animation-direction:normal"><path class="st7" d="M20.43 46.418c.421 0 .842.161 1.163.482l8.267 8.265h-6.81C23.712 69.458 35.546 80.883 50 80.883c10.076 0 19.241-5.549 23.92-14.483l4.584 2.401C72.929 79.445 62.007 86.058 50 86.058c-17.308 0-31.458-13.746-32.125-30.893H11l8.267-8.265a1.64 1.64 0 0 1 1.163-.482m0-3.5a5.111 5.111 0 0 0-3.638 1.507L8.525 52.69A3.5 3.5 0 0 0 11 58.664h3.667c1.061 7.935 4.755 15.257 10.601 20.896C31.95 86.007 40.734 89.558 50 89.558c13.313 0 25.423-7.331 31.604-19.133a3.5 3.5 0 0 0-1.477-4.724L75.543 63.3a3.498 3.498 0 0 0-4.724 1.476A23.44 23.44 0 0 1 50 77.383c-11.318 0-20.798-7.97-22.999-18.718h2.858a3.5 3.5 0 0 0 2.475-5.975l-8.267-8.265a5.107 5.107 0 0 0-3.637-1.507z"/></g></g><style>@keyframes ld-heartbeat{0%,60%{-webkit-transform:scale(1.05);transform:scale(1.05)}5%{-webkit-transform:scale(1.25);transform:scale(1.25)}39%{-webkit-transform:scale(.9);transform:scale(.9)}45%{-webkit-transform:scale(1.15);transform:scale(1.15)}}@-webkit-keyframes ld-heartbeat{0%,60%{-webkit-transform:scale(1.05);transform:scale(1.05)}5%{-webkit-transform:scale(1.25);transform:scale(1.25)}39%{-webkit-transform:scale(.9);transform:scale(.9)}45%{-webkit-transform:scale(1.15);transform:scale(1.15)}}path{stroke-width:0}.ld.ld-heartbeat{-webkit-animation:ld-heartbeat .8s infinite cubic-bezier(.215,.61,.355,1);animation:ld-heartbeat .8s infinite cubic-bezier(.215,.61,.355,1)}</style></svg></svg>