<svg xmlns="http://www.w3.org/2000/svg" viewBox="0 0 218.582 218.582"><path d="M160.798 64.543a13.164 13.164 0 0 0-4.046-4.005 67.351 67.351 0 0 0-.712-9.385c.373-4.515 1.676-29.376-13.535-40.585C133.123 3.654 122.676 0 112.294 0c-8.438 0-16.474 2.398-22.629 6.752-5.543 3.922-8.596 8.188-10.212 11.191-4.78.169-14.683 2.118-19.063 14.745-4.144 11.944-.798 19.323 1.663 22.743a65.907 65.907 0 0 0-.223 5.106 13.164 13.164 0 0 0-4.046 4.005c-2.74 4.229-3.206 9.9-1.386 16.859 3.403 13.012 11.344 15.876 15.581 16.451 2.61 5.218 8.346 15.882 14.086 21.24 2.293 2.14 5.274 3.946 8.86 5.37 4.577 1.816 9.411 2.737 14.366 2.737s9.789-.921 14.366-2.737c3.586-1.424 6.567-3.23 8.86-5.37 5.74-5.358 11.476-16.022 14.086-21.24 4.236-.575 12.177-3.44 15.581-16.452 1.82-6.957 1.354-12.629-1.386-16.857zm-8.289 14.328c-2.074 7.932-5.781 9.116-7.807 9.116-.144 0-.252-.008-.316-.013-2.314-.585-4.454.631-5.466 2.808-1.98 4.256-8.218 16.326-13.226 21.001-1.377 1.285-3.304 2.425-5.726 3.386-6.796 2.697-14.559 2.697-21.354 0-2.422-.961-4.349-2.101-5.726-3.386-5.008-4.675-11.246-16.745-13.226-21.001-.842-1.81-2.461-2.953-4.314-2.953a4.69 4.69 0 0 0-1.153.146 3.457 3.457 0 0 1-.315.013c-2.025 0-5.732-1.185-7.807-9.115-1.021-3.903-1.012-7.016.024-8.764.603-1.016 1.459-1.358 1.739-1.446 2.683-.291 4.299-2.64 4.075-5.347-.005-.066-.18-2.39.042-5.927 3.441-1.479 8.939-4.396 13.574-9.402 2.359-2.549 4.085-5.672 5.314-8.537 3.351 2.736 8.095 5.951 14.372 8.729 10.751 4.758 32.237 7.021 41.307 7.794.375 4.317.156 7.263.15 7.333-.236 2.715 1.383 5.066 4.075 5.357.28.088 1.136.431 1.739 1.446 1.037 1.747 1.046 4.86.025 8.762zm32.064 66.779l-43.715-17.485a5 5 0 0 0-6.558 2.942l-10.989 30.382-2.176-6.256 3.462-8.463a5.003 5.003 0 0 0-4.628-6.894H98.614a5 5 0 0 0-4.628 6.894l3.462 8.463-2.176 6.256-10.989-30.382a4.997 4.997 0 0 0-6.558-2.942L34.009 145.65c-13.424 5.369-22.098 18.182-22.098 32.641v35.291a5 5 0 0 0 5 5h184.76a5 5 0 0 0 5-5v-35.291c0-14.459-8.674-27.271-22.098-32.641zm-1.519 47.068a5 5 0 0 1-5 5h-33.57a5 5 0 0 1-5-5v-15.59a5 5 0 0 1 5-5h33.57a5 5 0 0 1 5 5v15.59z"/></svg>