<svg height="512pt" viewBox="0 0 512 512" width="512pt" xmlns="http://www.w3.org/2000/svg"><path d="M177.035 391.523H99.88C44.805 391.523 0 436.328 0 491.398c0 11.036 8.941 19.977 19.977 19.977h236.96c11.032 0 19.973-8.941 19.973-19.977 0-55.07-44.8-99.875-99.875-99.875zm-133.66 79.903c8.242-23.254 30.46-39.953 56.504-39.953h77.156c26.043 0 48.258 16.699 56.504 39.953zm0 0M315.238 0C206.746 0 118.48 88.266 118.48 196.762c0 6.66.348 13.312 1.012 19.922-34.957 8.52-60.992 40.078-60.992 77.625 0 44.058 35.844 79.902 79.902 79.902 21.559 0 41.137-8.598 55.524-22.527 34.117 26.812 76.312 41.836 121.312 41.836C423.734 393.52 512 305.254 512 196.762 512 88.266 423.734 0 315.238 0zM138.402 334.258c-22.03 0-39.953-17.922-39.953-39.95 0-22.03 17.922-39.953 39.953-39.953.672 0 1.344.02 2.008.051.317.035.633.055.953.07 20.649 1.524 36.989 18.801 36.989 39.833 0 22.027-17.922 39.949-39.95 39.949zm108 3.46v-17.425c0-37.606 30.598-68.2 68.203-68.2s68.2 30.594 68.2 68.2v17.957c-20.473 9.813-43.387 15.316-67.563 15.316-24.238.004-47.66-5.484-68.84-15.847zm175.965-26.562c-4.652-55.375-51.203-99.015-107.762-99.015-43.738 0-81.492 26.097-98.515 63.539-6.762-28.196-28.504-50.618-56.317-58.348-.886-6.8-1.343-13.68-1.343-20.57 0-86.465 70.347-156.809 156.808-156.809 86.465 0 156.809 70.344 156.809 156.809 0 45.074-19.125 85.765-49.68 114.394zm0 0"/><path d="M314.54 70.715c-35.798 0-64.923 29.12-64.923 64.918 0 35.8 29.125 64.922 64.922 64.922s64.918-29.121 64.918-64.922c0-35.797-29.121-64.918-64.918-64.918zm0 89.89c-13.77 0-24.97-11.203-24.97-24.972 0-13.766 11.2-24.969 24.97-24.969 13.765 0 24.968 11.203 24.968 24.969 0 13.77-11.203 24.972-24.969 24.972zm0 0"/></svg>