<svg xmlns="http://www.w3.org/2000/svg" viewBox="0 0 497.68 497.68"><path d="M464.04 404.82c0 97.6-96 92-215.2 92s-215.2 4.8-215.2-92c0-97.6 96-260 215.2-260 119.2.8 215.2 163.2 215.2 260z"/><path d="M248.84 145.62c119.2 0 215.2 162.4 215.2 260s-96 92-215.2 92"/><path d="M144.04 44.82c0-47.2 47.2-44.8 104.8-44.8s104.8-2.4 104.8 44.8-47.2 126.4-104.8 126.4-104.8-79.2-104.8-126.4z"/><path d="M248.84.02c57.6 0 104.8-2.4 104.8 44.8s-47.2 126.4-104.8 126.4"/><path d="M340.84 154.42c0 8-6.4 14.4-14.4 14.4h-155.2c-8 0-14.4-6.4-14.4-14.4v-4c0-8 6.4-14.4 14.4-14.4h156c8 0 14.4 6.4 14.4 14.4v4h-.8z"/><path d="M168.84 136.82h158.4c8 0 14.4 6.4 14.4 14.4v4c0 8-8 14.4-16 14.4"/><circle cx="248.84" cy="339.22" r="96"/><path d="M180.84 271.22c37.6-37.6 98.4-37.6 136 0s37.6 98.4 0 136"/><path d="M240.84 416.82v-20c-16-.8-24.8-4-32-8l4.8-21.6c8 4 18.4 8 30.4 8 10.4 0 17.6-4 17.6-11.2s-5.6-11.2-20-16c-20-6.4-32.8-16-32.8-33.6 0-16 7.2-28.8 31.2-32.8v-16.8h16v16c16 .8 21.6 3.2 27.2 6.4l-4.8 20.8c-4.8-2.4-12.8-6.4-26.4-6.4-12 0-16 4.8-16 10.4 0 6.4 6.4 9.6 22.4 16 21.6 8 30.4 17.6 30.4 34.4s-8.8 30.4-32.8 34.4v20h-15.2z"/><g><path d="M248.84 264.82v36.8h4c13.6 0 21.6 4 26.4 6.4l4.8-20.8c-6.4-3.2-11.2-6.4-27.2-6.4v-16h-8zM259.24 327.22c-4-1.6-8-3.2-10.4-4v27.2c8 4 12.8 8 12.8 13.6 0 6.4-4.8 9.6-12.8 11.2v41.6h8v-20.8c24-4 32.8-17.6 32.8-34.4 0-16.8-8.8-26.4-30.4-34.4z"/></g></svg>