<svg height="446pt" viewBox="-17 0 446 446.038" width="446pt" xmlns="http://www.w3.org/2000/svg"><path d="M188.914 228.27L32.547 192.742.027 219.848l156.36 35.535zm-62.809-74.192a107.074 107.074 0 0 1-4.87-6.48c-.497-.703-.942-1.422-1.415-2.137-1.03-1.598-2.03-3.133-2.984-4.742-.488-.801-.969-1.68-1.434-2.528a85.85 85.85 0 0 1-2.52-4.89c-.39-.797-.8-1.598-1.16-2.399a100.174 100.174 0 0 1-2.609-6.328c-.125-.336-.285-.656-.414-.992L.02 148.27l32.528 27.113zm-4.335-42.113c1.097 3.89 2.46 7.7 4.082 11.402a88.875 88.875 0 0 0 12.671 20.613 89.941 89.941 0 0 0 8.415 8.922c32.359 29.739 81.69 31.07 115.605 3.118 33.914-27.954 42.027-76.63 19.012-114.07-23.016-37.442-70.11-52.184-110.368-34.548-40.253 17.637-61.34 62.254-49.417 104.555zm84.699-15.903c-16.098.02-29.692-11.937-31.723-27.906-2.031-15.965 8.137-30.945 23.723-34.957v-9.136a8 8 0 0 1 16 0v9.136c14.082 3.637 23.945 16.317 24 30.864a8 8 0 0 1-16 0c0-8.836-7.164-16-16-16-8.84 0-16 7.164-16 16s7.16 16 16 16c16.094-.02 29.687 11.937 31.719 27.902 2.03 15.969-8.133 30.95-23.72 34.96v9.137a8 8 0 0 1-16 0v-9.136c-14.085-3.637-23.945-16.317-24-30.863a8 8 0 0 1 16 0c0 8.835 7.16 16 16 16 8.837 0 16-7.165 16-16s-7.163-16-16-16zm88.679 46.298a100.862 100.862 0 0 1-2.968 4.55c-.52.8-1.04 1.535-1.602 2.29a108.564 108.564 0 0 1-3.941 5.062c-.313.375-.586.8-.907 1.152l94.13 19.922 26.695-26.691-102.918-23.422c-.106.273-.242.535-.356.8-.863 2.22-1.8 4.395-2.812 6.536-.387.8-.801 1.601-1.219 2.398a78.783 78.783 0 0 1-2.59 4.84c-.496.883-1 1.723-1.512 2.562zm79.321 102.632l-118.227 26.871a8.008 8.008 0 0 1-6.895-1.648L214.47 241.14v204.898l160-36.375zm0 0"/><path d="M380.387 192.742L224.02 228.27l32.527 27.113 156.36-35.535zm-35.247-8.398l-73.273-15.48c-38.722 31.488-94.387 30.906-132.449-1.376l-72.879 16.575 139.93 31.792zM198.469 241.14l-34.883 29.075a8.006 8.006 0 0 1-6.895 1.648L38.47 244.993v164.671l160 36.36zm0 0"/></svg>