<svg height="479pt" viewBox="0 0 479.969 479" width="479pt" xmlns="http://www.w3.org/2000/svg"><path d="M468.121 165.613a7.998 7.998 0 0 0-10.02-4.902 7.997 7.997 0 0 0-5.18 9.879c31.36 96.039-5.398 201.191-89.76 256.773C278.792 482.95 167.67 475.23 91.8 408.52l41.558-38.403c69.489 56.918 171.457 49.086 231.442-17.773 59.98-66.856 56.742-169.074-7.352-232h82.535v-96l-8 7.383-32.129 29.656c-80.984-72.219-200.343-81.14-291.16-21.762-90.82 59.383-130.52 172.3-96.84 275.45a8.002 8.002 0 0 0 7.61 5.519c.847 0 1.687-.137 2.488-.406a8.003 8.003 0 0 0 5.113-10.09c-31.363-96.04 5.395-201.188 89.762-256.774C201.191-2.266 312.312 5.453 388.184 72.168l-41.559 38.398c-69.48-56.996-171.516-49.203-231.531 17.688s-56.742 169.172 7.426 232.09H39.984v96l8-7.387 32.13-29.656c80.984 72.222 200.343 81.14 291.16 21.762 90.82-59.383 130.519-172.297 96.84-275.45zm-228.137 82.73c-38.12-.12-69.539-29.933-71.66-67.995-2.12-38.059 25.79-71.176 63.66-75.536V80.344h16v24.469c36.414 4.113 63.946 34.886 64 71.53h-16c0-30.929-25.07-56-56-56s-56 25.071-56 56c0 30.927 25.07 56 56 56 38.121.118 69.54 29.93 71.66 67.993 2.122 38.059-25.789 71.18-63.66 75.535v24.473h-16V375.87c-36.41-4.113-63.945-34.887-64-71.527h16c0 30.926 25.07 56 56 56s56-25.074 56-56c0-30.93-25.07-56-56-56zm0 0"/></svg>