<svg height="511pt" viewBox="1 0 511 512" width="511pt" xmlns="http://www.w3.org/2000/svg"><path d="M450.676 125.457L387.039 61.82 268.543 181.31l63.648 63.644zM211.527 282.316c-5.152 12.371 7.27 24.778 19.633 19.61l76.176-39.406-56.438-56.438zM508.105 68.027c5.86-5.859 5.86-15.355 0-21.215L465.684 4.395c-5.86-5.86-15.356-5.86-21.215 0l-36.215 36.214 63.633 63.637zm0 0"/><path d="M45.5 421h15v76c0 6.063 3.648 11.543 9.258 13.855 5.527 2.31 12.015 1.079 16.347-3.25L172.711 421H347.5c24.813 0 45-20.188 45-45V227.066l-47.316 47.317a44.58 44.58 0 0 1-14.356 9.652l-85.883 44.531c-7.808 3.372-13.668 4.559-19.644 4.559-4.465 0-8.77-.86-12.93-2.125H105.5c-8.293 0-15-6.71-15-15 0-8.293 6.707-15 15-15h75.957c-2.96-9.82-1.691-20.457 2.39-30.219l46.29-89.898c1.316-3.324 4.57-8.16 8.687-12.274L286.434 121H45.5c-24.813 0-45 20.188-45 45v210c0 24.813 20.187 45 45 45zm0 0"/></svg>