<svg xmlns="http://www.w3.org/2000/svg" viewBox="0 0 315.38 264.66"><defs><style>.cls-1{fill:#1ca8cb;opacity:0.3;}.cls-2{fill:#e67a29;}.cls-3{fill:#d84c4f;}.cls-4{fill:#9865a8;}.cls-5{fill:#59beaf;}.cls-6{fill:#f5bb1f;}.cls-7{fill:#e83f4e;}.cls-8{fill:#8a59a1;}.cls-9{fill:#5cbc96;}.cls-10{fill:#fdeacd;}.cls-11{fill:#c0b8bd;}.cls-12{fill:#ddcec6;}.cls-13{fill:#2a2329;}.cls-14{fill:#2c9fda;}.cls-15{fill:#e9f5f8;}.cls-16{fill:#fef5f9;}.cls-17{fill:#e2f2ef;}.cls-18{fill:#58b981;}.cls-19{fill:#f5bb19;}.cls-20{fill:#9866a8;}.cls-21{fill:#d3d3d5;}.cls-22{fill:#fffefe;}.cls-23,.cls-31,.cls-36,.cls-42,.cls-45{fill:none;stroke-miterlimit:10;}.cls-23{stroke:#231815;}.cls-24{fill:#80afa2;}.cls-25{fill:#fef7fa;}.cls-26{fill:#ea576f;}.cls-27{fill:#fffcf8;}.cls-28{fill:#296da7;}.cls-29{fill:#f3fafb;}.cls-30{fill:#2fbbdb;}.cls-31{stroke:#2a2329;}.cls-32{fill:#6ec3ac;}.cls-33{fill:#2293ce;}.cls-34{fill:#d7d6d6;}.cls-35{fill:#ecedf7;}.cls-36{stroke:#d7d6d6;}.cls-37{fill:#ce6e94;}.cls-38{fill:#3756a5;}.cls-39{fill:#c7e6e4;}.cls-40{fill:#212344;}.cls-41{fill:#fdf0f6;}.cls-42{stroke:#32479b;}.cls-43{fill:#fef8fa;}.cls-44{fill:#e4de33;}.cls-45{stroke:#fff;}.cls-46{fill:#fffff9;}.cls-47{fill:#dd4e7e;}.cls-48{fill:#4363ad;}.cls-49{fill:#3366b1;}.cls-50{fill:#c9e5ec;}.cls-51{fill:#16131c;}.cls-52{fill:#846f91;}.cls-53{fill:#4e5ca8;}.cls-54{fill:#d4e2f4;}.cls-55{fill:#22251e;}.cls-56{fill:#cac4be;opacity:0.5;}</style></defs><title>computer</title><g id="圖層_2" data-name="圖層 2"><polygon class="cls-1" points="53.35 199.9 107.43 233.41 104.58 199.9 53.35 199.9"/><polyline class="cls-1" points="149.88 122.62 178.43 118.97 303.76 195.26 270.76 194.58 152.11 123.71"/><polyline class="cls-2" points="92.68 101.09 92.18 114.57 97.35 113.38"/><polygon class="cls-3" points="75.68 114.92 93.68 117.75 93.68 110.25 75.68 106.98 75.68 114.92"/><path class="cls-4" d="M114.64,131.31a28.29,28.29,0,0,1-10.29,2.58s-25.17.85-27.34-14.58L97.35,121Z" transform="translate(0 -7.63)"/><path class="cls-5" d="M114.64,131.31c4.09-2.1,7.21-5.9,4.37-12.76a15.45,15.45,0,0,0-7-7.84L97.35,121Z" transform="translate(0 -7.63)"/><path class="cls-6" d="M112,110.71c-8.22-4.54-19.35-2-19.35-2L97.35,121Z" transform="translate(0 -7.63)"/><path class="cls-7" d="M90.35,107.22S80,109,75.68,114.61l18,3.28Z" transform="translate(0 -7.63)"/><path class="cls-8" d="M114.64,131.31a28.29,28.29,0,0,1-10.29,2.58s-25.17.85-27.34-14.58l.78,10.3c4.79,12.31,26.56,11.57,26.56,11.57a28.29,28.29,0,0,0,10.29-2.58Z" transform="translate(0 -7.63)"/><path class="cls-9" d="M114.64,138.6c2.84-1.46,5.21-3.74,5.45-7.29l0-8c0,4-2.45,6.43-5.47,8Z" transform="translate(0 -7.63)"/><path class="cls-10" d="M106.32,119.63l1.72,2.25h4.77s1.79-1.75,2.79-.34-1.34,2-2.59,1.34l-5.5.27-2.37-2.77" transform="translate(0 -7.63)"/><path class="cls-11" d="M181.86,135.88v8.83l-15,8.17s-3,2.16,0,4.16,17.83,10.17,17.83,10.17,2,1.33,6.33-1.17,12.67-7.5,12.67-7.5,1.33-.5,1.67-2.83,0-12.5,0-12.5" transform="translate(0 -7.63)"/><path class="cls-12" d="M131.44,14v92.75s0,4.25,3.5,6.25,112.75,65,112.75,65,7.25,3.5,7.5-2.5,0-93.75,0-93.75,1-5-2.75-8S138.69,8,138.69,8,131.44,5.29,131.44,14Z" transform="translate(0 -7.63)"/><path class="cls-13" d="M251.94,82.54c.5,3.75,0,81,0,81l-120.5-68V14c0-2.78.73-4.4,1.73-5.31L246.63,74.29s5.62,2.5,5.53,7.25S251.94,82.54,251.94,82.54Z" transform="translate(0 -7.63)"/><polygon class="cls-14" points="136.94 11.16 245.44 73.16 245.44 145.41 136.94 83.16 136.94 11.16"/><path class="cls-15" d="M159.69,41l64.5,37.75s.25,14.86,0,14.55-64.5-37.55-64.5-37.55Z" transform="translate(0 -7.63)"/><path class="cls-16" d="M159.5,79,224,116.79s.25,14.85,0,14.55-64.5-37.55-64.5-37.55Z" transform="translate(0 -7.63)"/><path class="cls-17" d="M159.69,59.76l64.5,37.75s.25,14.86,0,14.56-64.5-37.56-64.5-37.56Z" transform="translate(0 -7.63)"/><polygon class="cls-18" points="162.69 76.16 162.69 84.78 172.94 90.53 172.94 82.41 162.69 76.16"/><polygon class="cls-19" points="162.69 37.76 162.69 46.38 172.94 52.13 172.94 44.01 162.69 37.76"/><polygon class="cls-20" points="162.69 57.03 162.69 65.65 172.94 71.4 172.94 63.28 162.69 57.03"/><polygon class="cls-21" points="177.19 47.28 220.19 72.28 220.19 73.91 177.19 49.03 177.19 47.28"/><polygon class="cls-21" points="177.19 66.19 220.19 91.19 220.19 92.81 177.19 67.94 177.19 66.19"/><polygon class="cls-21" points="177.19 85.71 220.19 110.71 220.19 112.34 177.19 87.46 177.19 85.71"/><polygon class="cls-21" points="203.93 69.2 177.19 53.74 177.19 51.99 203.93 67.53 203.93 69.2"/><polygon class="cls-21" points="203.93 88.62 177.19 73.15 177.19 71.4 203.93 86.95 203.93 88.62"/><polygon class="cls-21" points="203.93 107.63 177.19 92.17 177.19 90.42 203.93 105.96 203.93 107.63"/><path class="cls-22" d="M229.69,153l37.25,20.13s7.13,4.5,8.63-6.38-9-13.75-9-13.75c-3.63-33.37-25.5-21.7-25.5-21.7s-3.38-6.32-11.38,0c0,0-11.42-.05-5.58,13.33A65.32,65.32,0,0,0,229.69,153Z" transform="translate(0 -7.63)"/><path class="cls-23" d="M126.07,32.59" transform="translate(0 -7.63)"/><polyline class="cls-24" points="147.13 41.57 149.25 35.41 145.63 33.19 146.13 31.07 149.88 28.32 148.38 21.32 144.38 20.94 142.38 18.07 143.75 13.94 137.25 8.82 134.5 10.19 130.25 8.82 129.5 4.07 122.88 4.07 122.75 8.82 120.88 9.44 117 6.44 113.75 10.94 116.42 13.94 116.42 18.19 113 19.69 114.47 24.94 117.75 25.82 121 30.32 120.38 35.41 126.63 40.32 129.38 38.44 133.88 39.44 135.25 43.57 140.88 44.94 140.88 39.94 142.5 39.32"/><polygon class="cls-24" points="116.14 7.16 117 6.44 117 8.49 116.14 7.16"/><polygon class="cls-24" points="113 19.69 112.14 20.41 113.85 20.79 113 19.69"/><polygon class="cls-24" points="122.88 4.07 122.18 4.79 124.06 5.99 122.88 4.07"/><polygon class="cls-24" points="146.31 42.16 147.13 41.57 142.5 39.32 146.31 42.16"/><polygon class="cls-24" points="140.01 45.66 140.88 44.94 139.81 43.62 140.01 45.66"/><path class="cls-23" d="M216.84,190.73" transform="translate(0 -7.63)"/><path class="cls-25" d="M221.89,193.71a38.31,38.31,0,0,0,7.37,3.58c3.88.88,4.13-2.62,4.13-2.62s.5-8.75,0-12.75a7.2,7.2,0,0,0-4-5.5l-16.63-9.23c-5.37-1.85-5.62,1.73-5.62,1.73s-.25,9.37,0,12.39a8,8,0,0,0,2.62,5s3.21,2.08,7.08,4.44l3.3,7.31Z" transform="translate(0 -7.63)"/><ellipse class="cls-26" cx="219.94" cy="181.9" rx="4.99" ry="7.65" transform="translate(-58.57 236.67) rotate(-52.22)"/><path class="cls-27" d="M222.31,183.14c-.29.66-1.31,1.37-3.17,2.09,0,0-4.25-3.94-2.5-5.31s2.87.87,2.87.87a1.92,1.92,0,0,1,2.92.84A2,2,0,0,1,222.31,183.14Z" transform="translate(0 -7.63)"/><path class="cls-23" d="M106.73,98.48" transform="translate(0 -7.63)"/><path class="cls-25" d="M111.23,101l7.78,4.26c2.88.37,3.55-1.79,3.55-1.79l-.3-15.5a5.22,5.22,0,0,0-2.79-4.34l-18.21-9.75a3,3,0,0,0-4.12,1.75s-.46,13-.5,15.17a3.25,3.25,0,0,0,1.46,3l8.63,4.73,2,6.06Z" transform="translate(0 -7.63)"/><path class="cls-28" d="M114.82,95.29c-1.69,2.18-5.76,1.85-9.1-.74s-4.69-6.46-3-8.63c1-1.35,3-1.74,5.12-1.23a10.77,10.77,0,0,1,4,2C115.17,89.25,116.51,93.12,114.82,95.29Z" transform="translate(0 -7.63)"/><path class="cls-29" d="M106.18,87.71s1.33,1.12,1.88.17.83-1.59,1.54-.84,0,2.17,0,2.17A2.46,2.46,0,0,1,112.06,91c.37,1.83-.55,3.29-1.84,3a5.84,5.84,0,0,1-3.29-2.5l-1-.41Z" transform="translate(0 -7.63)"/><path class="cls-13" d="M201.89,215.48l25.19-15.06a4.29,4.29,0,0,1,4.5,0l9.81,6.25s1.81,1.43,1.06,3.31l-25.94,15.81s-2.25,1.38-3.87.31-10.75-6.31-10.75-6.31A4.06,4.06,0,0,1,201.89,215.48Z" transform="translate(0 -7.63)"/><polygon class="cls-30" points="205.39 207.66 226.72 194.85 238.14 202.78 217.39 215.22 205.39 207.66"/><path class="cls-31" d="M188.51,193.79" transform="translate(0 -7.63)"/><path class="cls-6" d="M116.23,138.88" transform="translate(0 -7.63)"/><polygon class="cls-32" points="145.26 31.79 149.01 29.04 147.51 22.04 143.51 21.66 141.51 18.79 142.89 14.66 136.39 9.54 133.64 10.91 129.39 9.54 128.64 4.79 122.01 4.79 121.89 9.54 120.01 10.16 116.14 7.16 112.89 11.66 115.55 14.66 115.55 18.91 112.14 20.41 113.61 25.66 116.89 26.54 120.14 31.04 119.51 36.13 125.76 41.03 128.51 39.16 133.01 40.16 134.39 44.28 140.01 45.66 140.01 40.66 141.64 40.03 146.26 42.28 148.39 36.13 144.76 33.91 145.26 31.79"/><path class="cls-33" d="M125.14,24.92s9.37-2.13,13.12,8.62-7.12,5.88-7.12,5.88S118.64,30.79,125.14,24.92Z" transform="translate(0 -7.63)"/><path class="cls-14" d="M136.93,40.35c1.82-.44,3-2.15,1.33-6.85a17.78,17.78,0,0,0-1.3-2.9Z" transform="translate(0 -7.63)"/><path class="cls-13" d="M131.42,39.64s3.18,1.42,5.51,1l0-10.36a11.14,11.14,0,0,0-5.53-4.63Z" transform="translate(0 -7.63)"/><path class="cls-25" d="M134.14,153" transform="translate(0 -7.63)"/><polygon class="cls-34" points="114.45 157.76 170.62 190.1 194.12 174.74 194.26 173.68 114.6 156.7 114.45 157.76"/><polygon class="cls-35" points="114.6 156.7 138.43 142.53 194.26 173.68 170.76 189.03 114.6 156.7"/><line class="cls-36" x1="134.14" y1="145.41" x2="190.01" y2="177.03"/><line class="cls-36" x1="130.59" y1="147.43" x2="185.6" y2="179.59"/><line class="cls-36" x1="126.09" y1="150.17" x2="181.4" y2="182.39"/><line class="cls-36" x1="121.29" y1="152.92" x2="176.47" y2="185.5"/><line class="cls-36" x1="159.72" y1="183" x2="165.84" y2="179.36"/><line class="cls-36" x1="119.86" y1="160.14" x2="142.68" y2="145.31"/><line class="cls-36" x1="125.75" y1="163.51" x2="147.6" y2="148.22"/><line class="cls-36" x1="130.71" y1="166.45" x2="152.11" y2="150.64"/><line class="cls-36" x1="141.6" y1="164.91" x2="157.05" y2="153.11"/><line class="cls-36" x1="146.08" y1="167.6" x2="162.5" y2="156.2"/><line class="cls-36" x1="152.11" y1="171.42" x2="168.24" y2="159.66"/><line class="cls-36" x1="158.1" y1="174.71" x2="174.57" y2="162.94"/><line class="cls-36" x1="163.17" y1="177.97" x2="180.41" y2="166.45"/><line class="cls-36" x1="169.51" y1="181.18" x2="187.34" y2="170.13"/><path class="cls-10" d="M191.15,191.29l.79,2.45c4.29.3,3-5.79,3-5.79l-4-.88" transform="translate(0 -7.63)"/><path class="cls-10" d="M198.19,193.75l4.58-4.76s-.25-1.66,1.09-1.87,1.62.29,1.79.83a1.44,1.44,0,0,1-1.17,1.57l-5,6.14" transform="translate(0 -7.63)"/><path class="cls-37" d="M199.73,233.3l-.08,1.66s1,.38,2.39.75,1.63,2.13,0,2.32-4.43.43-4.75-1.07.38-2,.38-2l-.46-1.66" transform="translate(0 -7.63)"/><path class="cls-37" d="M189.48,232.87a2.51,2.51,0,0,0,1.38,2.41,1.37,1.37,0,0,1,.91,1.88s-.79,1.29-4.46-.25c0,0-1.58-1.25.5-4.59" transform="translate(0 -7.63)"/><path class="cls-38" d="M188,209.66s.13,5.67,2.92,8l-4.16,14.87,3.49.88,4-14.42,2.5,3.13L196.4,235l4.32-.29-.53-14.79-4-8.42" transform="translate(0 -7.63)"/><path class="cls-39" d="M189.27,194c-1.33,1.75-1.58,6.71-1.58,6.71l-.5,9.25s5.83,3.38,10.25,2.92a45.64,45.64,0,0,1-1.29-14.5l4.29-2.5-1.63-3a8.2,8.2,0,0,1-3.87.47l-2.08-.05" transform="translate(0 -7.63)"/><path class="cls-40" d="M192.92,188.87s2.64,0,3.1-1.17-.23-3.25-1.55-3.54-3.91-.54-5,.54-4.58,7.79,0,13.09a4.21,4.21,0,0,0,5,.37S192.19,190.29,192.92,188.87Z" transform="translate(0 -7.63)"/><polygon class="cls-41" points="39.76 177.08 91.1 147.41 104.1 173.38 145.76 178.74 158.1 203.41 107.43 233.41 96.43 210.41 51.76 203.41 39.76 177.08"/><line class="cls-36" x1="96.43" y1="210.41" x2="145.76" y2="178.74"/><line class="cls-36" x1="51.76" y1="203.41" x2="104.1" y2="173.38"/><path class="cls-36" d="M46.15,181" transform="translate(0 -7.63)"/><polyline class="cls-36" points="116.23 227.81 105.23 205.02 60.56 198.08 48.56 171.99"/><polyline class="cls-36" points="126.16 221.83 115.16 198.83 70.49 191.83 58.49 165.49"/><polyline class="cls-36" points="70.26 159.57 82.26 185.9 125.75 192.72 136.94 215.91"/><polyline class="cls-36" points="81.23 153.11 93.14 179.26 134.23 185.7 147.08 209.94"/><line class="cls-36" x1="46.15" y1="190.41" x2="97.77" y2="160.74"/><line class="cls-36" x1="66.72" y1="205.75" x2="117.38" y2="175.38"/><line class="cls-36" x1="83.26" y1="208.35" x2="134.14" y2="177.57"/><line class="cls-36" x1="101.89" y1="221.83" x2="152.92" y2="193.05"/><polyline class="cls-42" points="45.51 175.36 57.3 175.36 57.3 177.3 64.32 176.74 64.32 190.12 85.64 188.4 91.53 195.12 128.86 189.59 155.14 203.41"/><path class="cls-43" d="M66.67,185c4,1.94,7.69,3.64,8.59,3.94,2.25.75,3.34-2.38,3.34-2.38s.16-11,0-14-3.34-4.75-3.34-4.75L57.76,159c-5.62-1.62-6.25,2.88-6.25,2.88v13.85a3,3,0,0,0,2.13,2.91s4.52,2.22,9.45,4.59L64.64,189Z" transform="translate(0 -7.63)"/><ellipse class="cls-44" cx="64.32" cy="173.86" rx="5.65" ry="7.43" transform="translate(-109.76 102.49) rotate(-49.59)"/><path class="cls-45" d="M67.12,177.87c-1.41,1-3.7.67-5.46-.83a5.67,5.67,0,0,1-1.77-2.59" transform="translate(0 -7.63)"/><circle class="cls-46" cx="61.81" cy="164.43" r="0.85"/><circle class="cls-46" cx="66.72" cy="166.3" r="0.82"/><path class="cls-47" d="M59.35,233.5a11,11,0,0,0,3.36,1.67c1.55.33,0,3.16-2.28,2.25s-3.92-.09-2.75-4.42" transform="translate(0 -7.63)"/><path class="cls-48" d="M59.26,223.83s.34,6.84-2.58,9.17a3.5,3.5,0,0,0,3.63.5s3.37-4.25,3.37-8.92" transform="translate(0 -7.63)"/><path class="cls-10" d="M68.51,208.85l2.28,4.91,2.07,1.63s1.59-.66,2.09,1.34-1.25,2-1.25,2-1.19.22-1.37-.88L69,215.2l-1.84-5.38" transform="translate(0 -7.63)"/><path class="cls-10" d="M53.39,209.82l-.28,8.32s-1.66.93-.66,2.37,3.53.56,3.31-.69-.4-1.31-.4-1.31l.15-8.69" transform="translate(0 -7.63)"/><path class="cls-47" d="M65.93,238.25s1,1.08,4.5,1.33c0,0,2.67,1.42,0,2.67s-6.25.08-6.25-.92v-3.08" transform="translate(0 -7.63)"/><path class="cls-49" d="M64.18,219.42" transform="translate(0 -7.63)"/><path class="cls-49" d="M58.76,219.75s-1.66,5.08,3.25,9.83c0,0,2.14,2.5,1.32,9.09a3.85,3.85,0,0,0,4.27-.42s.75-8.25-1.67-9.92c0,0-1.39-3.07-.57-8.26" transform="translate(0 -7.63)"/><path class="cls-50" d="M52.26,210.42l4.42,1.14.9-1.9-.28,11h9.42l-.82-11.85.82,3.13,2.92-3.13s-1.36-4.87-3.74-5.37l-6.42-.82S54.61,202.29,52.26,210.42Z" transform="translate(0 -7.63)"/><path class="cls-10" d="M61,202.6s.66,5.63,2.28.22" transform="translate(0 -7.63)"/><ellipse class="cls-10" cx="62.33" cy="191.29" rx="3.91" ry="4.66"/><path class="cls-51" d="M64,197s-2.75,3.38-6.47,2.16c0,0,.1-7.24,6.75-4.9,0,0,2.82.49,2.41,4.3C66.65,198.57,64.34,198.6,64,197Z" transform="translate(0 -7.63)"/><path class="cls-32" d="M40.93,0" transform="translate(0 -7.63)"/><path class="cls-24" d="M110.56,8.08" transform="translate(0 -7.63)"/><path class="cls-52" d="M117.43,140.5s-.75,1.08,3.25,1.75c0,0,2.29,1.75-.82,2.08s-5.18-.41-4.76-3.83" transform="translate(0 -7.63)"/><path class="cls-52" d="M106.6,145.33a3.93,3.93,0,0,0,3.08,2.09c2.25.25.73,3.16-.76,2.75s-4.32-.59-3.82-4.17" transform="translate(0 -7.63)"/><path class="cls-53" d="M100.33,127.5s-1.9,3.25.43,5.67,2.84,1.91,2.84,1.91l.5,11.09s2.5,1,3.16-.84c0,0,2.84-12.56.67-14s-3.76-2.51-3.76-2.51,7.68-.58,7.68,1.17,2.07,11.25,2.07,11.25,2.94.58,4.35-.75c0,0,1.34-11.42-2-13s-5-2.33-12.13-2.08" transform="translate(0 -7.63)"/><path class="cls-54" d="M107.1,119.25s-4.17,2.92-.67,5.58c0,0-.17,4.34-7.5,4.5,0,0-4.92-15,6.67-13.16" transform="translate(0 -7.63)"/><path class="cls-10" d="M101.14,123.67v2.93l6.59,2.73s1.25-1.29,1.94-.23-.09,2.66-1.72,1.79L99.83,128l-.23-4.59" transform="translate(0 -7.63)"/><ellipse class="cls-10" cx="108.04" cy="109.32" rx="3.45" ry="3.09"/><path class="cls-55" d="M108,116.66l-2.65-2.34s2.37-2.28,4.29-1,2.57.92,2.35,4l-.54,1.25-1.94-.84.37-1.13-.86.8Z" transform="translate(0 -7.63)"/></g><g id="圖層_3" data-name="圖層 3"><ellipse class="cls-56" cx="10.14" cy="216.66" rx="5.13" ry="5.14"/><ellipse class="cls-56" cx="242.63" cy="25.58" rx="5.13" ry="5.14"/><path class="cls-56" d="M18,160.75S-.57,170.38,0,172.07s18.59-11,18.59-11" transform="translate(0 -7.63)"/><path class="cls-56" d="M73.81,68.08s-18.59,9.64-18,11.33,18.58-11,18.58-11" transform="translate(0 -7.63)"/><path class="cls-56" d="M153.53,260.81s-18.58,9.64-18,11.32,18.58-11,18.58-11" transform="translate(0 -7.63)"/><path class="cls-56" d="M293.73,232.51s-18.59,9.64-18,11.32,18.58-11,18.58-11" transform="translate(0 -7.63)"/><path class="cls-56" d="M309.33,140.7s-18.58,9.64-18,11.32,18.59-11,18.59-11" transform="translate(0 -7.63)"/><path class="cls-56" d="M293.73,38.35s-18.59,9.64-18,11.32,18.58-11,18.58-11" transform="translate(0 -7.63)"/><ellipse class="cls-56" cx="35.69" cy="123.71" rx="2.03" ry="2.04"/><ellipse class="cls-56" cx="75.68" cy="37.76" rx="2.03" ry="2.04"/><ellipse class="cls-56" cx="201.89" cy="2.99" rx="2.03" ry="2.04"/><ellipse class="cls-56" cx="285.01" cy="80.01" rx="2.03" ry="2.04"/><ellipse class="cls-56" cx="313.35" cy="164.91" rx="2.03" ry="2.04"/><ellipse class="cls-56" cx="236.83" cy="247.47" rx="3.22" ry="3.23"/><ellipse class="cls-56" cx="89.03" cy="260.96" rx="2.03" ry="2.04"/><ellipse class="cls-56" cx="29.63" cy="72.68" rx="3.47" ry="3.48"/></g></svg>